<svg width="622" height="823" viewBox="0 0 622 823" fill="none" xmlns="http://www.w3.org/2000/svg">
<circle cx="210.5" cy="411.5" r="411.5" fill="#FCE4EC"/>
<g clip-path="url(#clip0)">
<path fill-rule="evenodd" clip-rule="evenodd" d="M6.20074 157.142C1.28503 154.705 -5.26814 157.532 -2.53446 163.975C0.393802 170.876 11.2204 170.961 17.3348 170.824C16.7228 170.792 14.7521 164.464 14.0775 163.508C12.0878 160.688 9.22281 158.643 6.20074 157.142ZM62.8387 280.859C64.0789 281.919 62.9396 280.958 62.8387 280.859V280.859ZM1.4653 188.353C-1.41135 190.552 -1.54855 194.434 0.801293 197.062C3.59941 200.191 8.70872 200.077 12.5226 199.772C14.2479 199.634 23.4598 198.896 21.2762 197.389C21.4442 197.452 21.795 197.606 22.1704 197.815C22.3724 198.554 22.5845 199.289 22.8056 200.021C22.7514 200.053 22.7053 200.087 22.6473 200.119C22.7101 200.091 22.7541 200.061 22.8093 200.034C25.0246 207.353 28.1779 214.322 32.3068 220.842C30.762 220.233 29.162 219.773 27.5391 219.568C22.7334 218.96 12.6235 222.695 17.9992 229.093C23.1536 235.227 31.1782 228.646 37.028 227.739C42.7022 235.658 48.9582 243.247 55.5145 250.583C55.1128 250.709 54.7602 250.971 54.5581 251.379C51.9279 250.045 49.1872 248.136 46.7529 247.619C43.2403 246.874 36.0376 246.423 33.3827 249.567C30.1174 253.433 33.6176 256.573 37.4755 257.315C43.0694 258.39 50.3922 255.657 55.7748 253.81C56.3905 253.919 57.0627 253.739 57.4642 253.247C57.5832 253.208 57.7021 253.169 57.8178 253.132C64.4572 260.432 71.3506 267.491 78.202 274.395C78.1291 274.391 78.0562 274.387 77.9801 274.383C76.1929 273.211 74.2759 272.249 72.1979 271.745C67.3911 270.574 61.7354 270.568 57.8346 274.046C53.9489 277.509 52.5725 283.566 56.5923 287.455C64.6387 295.239 76.4938 277.49 80.5525 276.749C87.5151 283.692 94.8773 290.179 102.355 296.534C101.506 296.276 100.635 296.086 99.7349 296C92.4021 295.298 75.1906 304.288 84.1897 313.133C92.0319 320.84 101.109 306.005 107.428 300.817C114.475 306.741 121.56 312.624 128.446 318.737C124.69 317.74 121.061 317.593 117.035 318.809C112.869 320.07 106.146 323.216 108.78 328.84C111.459 334.56 119.531 331.957 123.735 330.141C126.029 329.151 130.626 325.808 134.663 324.4C145.651 334.774 155.169 346.2 162.375 359.661C166.873 368.065 170.287 377.044 172.69 386.273C174.223 392.163 177.245 402.056 176.64 409.723C179.524 394.377 174.31 375.946 168.693 362.229C163.529 349.616 155.8 338.543 146.747 328.576C149.019 321.743 168.14 311.888 156.709 305.54C150.639 302.184 144.422 307.753 143.095 313.652C142.183 317.705 143.572 322.798 145.046 326.733C142.198 323.694 139.237 320.754 136.187 317.911C131.971 313.982 127.654 310.166 123.295 306.399C130.477 299.652 137.274 280.364 127.645 277.21C113.425 272.565 120.272 298.874 121.264 303.806C121.546 303.822 121.765 303.737 121.927 303.555C121.847 304.006 121.754 304.489 121.641 304.976C113.3 297.803 104.835 290.772 96.6483 283.428C97.3859 282.883 98.5584 280.8 99.4799 279.691C101.56 277.192 103.549 274.581 105.004 271.657C107.301 267.037 109.516 259.666 103.427 256.949C96.8046 253.988 93.6576 262.323 93.6114 267.296C93.58 270.735 94.5166 274.002 95.0045 277.373C95.157 278.424 94.5697 283.163 96.002 281.125C95.9344 281.876 95.9247 282.421 95.9582 282.807C94.4885 281.482 93.0301 280.142 91.581 278.793C91.6481 278.623 91.6978 278.437 91.7091 278.222C91.7868 276.739 90.295 276.168 89.2489 276.602C87.3367 274.785 85.4432 272.945 83.5835 271.069C79.6419 267.093 75.6432 263.004 71.6721 258.828C72.5336 258.087 72.191 257.062 72.9967 256.277C73.8012 255.493 75.3856 255.059 76.3315 254.331C78.7107 252.498 80.6836 249.828 82.1104 247.2C84.4661 242.858 87.5104 233.75 80.6288 231.681C73.5356 229.544 69.9352 238.312 69.4792 243.794C69.3904 244.856 70.1855 254.424 70.7943 257.899C63.4463 250.138 56.2193 242.085 49.6717 233.892C51.657 233.874 57.2854 229.806 58.4233 228.696C61.1996 225.989 65.613 220.008 60.7456 216.842C56.4178 214.035 51.0832 218.101 49.2325 222.053C48.9283 222.704 47.8556 228.761 47.772 231.479C45.062 228.004 42.4769 224.51 40.0718 221.004C38.4678 218.673 36.969 216.28 35.5666 213.837C35.9042 213.646 36.2218 213.312 36.5218 212.897C43.7398 211.672 52.9425 200.41 44.4641 196.491C40.4275 194.628 36.0498 198.474 34.0724 201.623C33.6672 202.267 33.0111 205.506 32.4771 208.061C28.4425 199.967 25.3594 191.397 23.0129 182.611C23.6412 182.455 24.1734 181.975 24.2435 181.149C27.7479 179.151 30.5153 177.488 32.9616 173.646C34.4814 171.26 37.2184 165.808 32.7528 164.484C26.9415 162.76 23.291 171.636 22.8156 176.008C22.7602 176.516 22.7622 177.992 22.7814 179.344C22.5796 179.317 22.3757 179.32 22.1757 179.355C20.841 173.915 19.7756 168.404 18.9283 162.885C22.1002 161.864 22.6487 145.206 20.5368 142.834C15.8162 137.523 12.4859 145.195 12.7379 149.249C13.0356 154.03 15.2021 158.38 17.7818 162.239C18.0586 162.648 17.9796 162.628 18.0513 162.059C18.091 162.34 18.1852 162.548 18.3248 162.698C18.1917 165.215 17.9322 167.792 18.0568 170.019C18.414 176.396 19.1569 182.811 20.2355 189.106C20.4979 190.637 20.7984 192.156 21.1352 193.661C18.5858 191.489 15.1484 189.559 13.8034 188.956C10.3125 187.391 4.93266 185.702 1.4653 188.353ZM177.05 409.745C176.888 411.968 176.486 414.005 175.737 415.684C176.299 413.772 176.73 411.785 177.05 409.745Z" fill="#F2F2F2"/>
<g opacity="0.7">
<path opacity="0.7" fill-rule="evenodd" clip-rule="evenodd" d="M101.822 307.77C115.474 307.062 132.359 315.031 133.815 329.871C134.873 340.653 134.546 351.405 136.183 362.172C137.492 370.776 140.261 379.036 144.038 386.874C147.67 394.411 155.203 400.827 157.162 408.879C158.411 414.01 157.712 421.227 155.99 426.245C153.896 432.347 155.009 431.865 159.182 436.985C167.359 447.018 174.723 457.307 179.93 469.29C187.43 486.55 192.348 506.725 189.564 525.618C189.21 528.017 188.79 536.627 185.486 537.229C181.796 537.902 183.522 532.978 183.719 531.387C184.974 521.238 186.089 512.367 184.575 502.059C178.732 462.288 150.201 436.085 131.623 402.331C130.602 400.59 128.446 396.445 126.947 393.711C124.58 389.393 122.201 381.179 118.997 377.977C112.963 371.947 118.511 384.071 119.686 386.385C121.173 389.313 122.808 392.425 124.332 394.99C131.302 406.882 139.082 419.862 146.28 432.121C115.147 439.214 93.2208 401.785 84.866 377.178C77.9824 356.905 69.7463 309.505 101.822 307.77Z" fill="#69A1AC"/>
<path opacity="0.7" fill-rule="evenodd" clip-rule="evenodd" d="M284.805 270.121C261.983 271.932 247.331 286.992 240.511 308.056C236.835 319.407 236.413 331.068 234.37 342.734C231.298 360.284 224.686 373.585 211.764 386.089C207.762 389.961 204.812 393.937 202.716 398.191C198.554 402.438 194.931 407.244 192.269 413.12C188.869 420.624 187.907 429.628 191.832 437.109C192.888 439.121 195.521 443.158 198.25 444.992C188.033 466.752 182.415 490.584 183.048 514.386C183.431 528.753 184.132 543.127 184.951 557.477C185.171 561.33 186.426 567.693 188.31 561.231C190.035 555.32 187.872 546.041 187.672 539.867C186.698 509.786 185.866 482.435 198.248 454.331C199.547 451.385 200.924 448.463 202.357 445.565C202.442 445.516 202.52 445.457 202.599 445.4C202.653 445.442 202.703 445.487 202.758 445.529C202.849 445.365 202.975 445.171 203.121 444.954C203.532 444.529 203.891 443.993 204.233 443.395C205.331 441.873 206.574 440.084 206.581 439.105C206.581 439.098 206.577 439.086 206.577 439.078C214.242 426.565 223.022 414.742 231.991 403.149C231.923 403.234 241.718 389.897 240.204 397.272C239.474 400.827 232.269 407.595 229.359 411.36C222.922 419.735 215.363 430.348 209.082 440.61C208.237 441.096 207.043 443.48 206.179 445.257C205.702 446.157 205.257 447.064 204.82 447.855C227.077 455.208 244.39 440.396 256.196 423.168C256.21 423.147 256.223 423.126 256.236 423.106C259.829 418.346 263.509 413.619 268.107 409.856C275.777 403.576 283.992 402.468 293.036 399.378C317.7 390.951 328.186 358.987 331.516 335.27C335.274 308.513 316.894 267.483 284.805 270.121Z" fill="#89C5CC"/>
<path opacity="0.7" fill-rule="evenodd" clip-rule="evenodd" d="M239.723 195.19C216.299 219.569 204.982 253.383 196.022 285.172C186.014 320.676 179.403 356.728 179.149 393.642C178.983 417.895 178.323 442.299 179.739 466.523C180.241 475.126 181.099 483.745 182.462 492.255C182.575 492.955 185.626 511.958 188.545 507.53C190.205 505.012 185.417 487.817 185.056 484.953C183.021 468.822 182.548 452.573 182.647 436.326C182.81 409.575 182.021 382.962 184.733 356.31C185.137 352.33 185.457 348.151 186.402 344.258C187.406 340.119 186.127 341.926 189.396 340.287C192.573 338.694 196.498 338.922 199.794 336.924C212.866 328.997 219.553 308.635 224.758 295.275C230.711 279.998 234.329 263.706 237.219 247.628C239.341 235.816 240.858 224.075 241.716 212.11C241.987 208.339 242.003 204.396 242.744 200.688C242.944 199.688 243.945 197.919 243.909 197.033C243.832 195.158 242.701 194.056 242.608 192.481C241.627 193.363 240.665 194.267 239.723 195.19Z" fill="#89C5CC"/>
<path opacity="0.7" fill-rule="evenodd" clip-rule="evenodd" d="M112 520C112 560.317 144.683 593 185 593C225.317 593 258 560.317 258 520" fill="#89C5CC"/>
<path opacity="0.7" fill-rule="evenodd" clip-rule="evenodd" d="M190.857 520.232H187C187.268 515.393 187.621 510.562 188.43 505.776C191.525 487.473 201.2 460.591 222.42 457.62C223.203 457.51 226.083 457.491 229.571 457.696C231.224 456.772 233.076 456.213 235.028 456.085C253.095 454.753 273.271 469.329 281.986 484.497C289.012 496.726 287.828 512.785 283.489 525.778C280.583 534.476 274.241 546.878 263.665 546.999C250.433 547.15 249.795 530.796 249.539 521.236C249.199 508.525 247.593 497.453 237.577 488.789C235.243 486.771 232.692 484.995 230.334 483.005C226.642 479.89 222.562 476.7 222.086 471.546C221.43 464.436 225.443 463.156 231.571 464.477C232.616 464.702 243.139 469.424 241.581 465.692C241.105 464.552 239.368 463.648 237.175 462.971C231.501 462.354 224.734 461.638 222.787 462.066C201.792 466.672 193.617 495.755 191.446 514.233C191.212 516.227 191.023 518.228 190.857 520.232Z" fill="#69A1AC"/>
</g>
</g>
<path fill-rule="evenodd" clip-rule="evenodd" d="M351.262 299.49C346.654 294.081 343.536 287.453 344.057 280.025C345.558 258.625 375.349 263.333 381.143 274.134C386.938 284.935 386.25 312.333 378.76 314.263C375.774 315.033 369.411 313.147 362.935 309.244L367 338H343L351.262 299.49Z" fill="#915B3C"/>
<path fill-rule="evenodd" clip-rule="evenodd" d="M349.418 304.308C346.406 290.906 337.825 281.771 339.135 275.782C340.009 271.789 342.338 269.305 346.121 268.332C348.078 260.416 354.39 257.048 365.056 258.23C381.055 260.004 390.819 266.648 386.602 281.268C382.726 281.268 378.046 279.866 371.576 282.268C369.522 283.03 368.054 285.393 367.17 289.358H364.246C361.408 284.653 358.609 282.924 355.851 284.171C353.092 285.418 352.465 288.447 353.97 293.259L352.529 304.308H349.418Z" fill="#191847"/>
<path fill-rule="evenodd" clip-rule="evenodd" d="M276 463H391C399.837 463 407 470.163 407 479V571C407 579.837 399.837 587 391 587H276C267.163 587 260 579.837 260 571V479C260 470.163 267.163 463 276 463ZM292 491C289.791 491 288 492.791 288 495V555C288 557.209 289.791 559 292 559H375C377.209 559 379 557.209 379 555V495C379 492.791 377.209 491 375 491H292Z" fill="#C5CFD6"/>
<path fill-rule="evenodd" clip-rule="evenodd" d="M506.159 582C486.443 557.924 473.103 540.075 466.138 528.454C454.213 508.555 444.453 490.848 441.373 484.084C434.028 467.955 458.282 460.403 463.771 467.926C472.079 479.312 489.822 515.143 517 575.417L506.159 582Z" fill="#B28B67"/>
<path fill-rule="evenodd" clip-rule="evenodd" d="M465.758 575L429.065 482.637C421.217 465.8 459.116 454.732 464.883 462.568C477.977 480.357 509.099 550.534 513 555.834L465.758 575Z" fill="#2F3676"/>
<path fill-rule="evenodd" clip-rule="evenodd" d="M368.033 556.477C375.181 546.051 401.179 510.974 415.339 496.461C419.408 492.291 423.379 488.288 427.134 484.557C438.296 473.47 460.524 492.106 449.382 502.205C421.635 527.355 381.151 561.307 377.769 564.334C373.028 568.577 363.541 563.029 368.033 556.477Z" fill="#915B3C"/>
<path fill-rule="evenodd" clip-rule="evenodd" d="M369.705 551.767C367.242 553.794 365.641 555.45 364.899 556.734C363.998 558.296 362.942 560.725 361.733 564.021C363.544 565.067 379.826 574.467 410.578 592.222C414.27 588.759 414.845 586.07 412.304 584.157C409.762 582.243 407.665 580.629 406.012 579.315L389.152 556.087C388.828 555.64 388.202 555.54 387.756 555.865C387.748 555.87 387.74 555.876 387.733 555.882L384.23 558.579C381.016 558.299 378.618 557.702 377.035 556.788C375.749 556.045 374.273 554.501 372.607 552.154L372.607 552.154C371.967 551.253 370.719 551.041 369.818 551.681C369.779 551.708 369.741 551.737 369.705 551.767Z" fill="#E4E4E4"/>
<path fill-rule="evenodd" clip-rule="evenodd" d="M497.678 578.402C496.559 581.388 496 583.623 496 585.106C496 586.909 496.3 589.54 496.901 593C498.993 593 517.794 593 553.303 593C554.769 588.155 553.923 585.539 550.765 585.152C547.607 584.766 544.984 584.417 542.895 584.106L516.68 572.419C516.176 572.194 515.584 572.421 515.359 572.925C515.356 572.934 515.352 572.942 515.348 572.951L513.663 577.039C510.74 578.403 508.364 579.085 506.537 579.085C505.052 579.085 503.001 578.485 500.384 577.285L500.384 577.285C499.38 576.825 498.193 577.266 497.733 578.27C497.713 578.313 497.695 578.357 497.678 578.402Z" fill="#E4E4E4"/>
<path fill-rule="evenodd" clip-rule="evenodd" d="M415.862 487.25C385.365 482.282 364.938 478.884 354.581 477.058C325.057 471.852 316.448 455.965 321.538 421.302H375.934C383.133 423.381 413.21 436.237 466.168 459.872C475.696 464.602 473.921 478.548 472.18 483.142C472.109 483.329 456.046 510.853 423.992 565.713L379.494 537.365L415.946 490.59C416.908 488.651 416.88 487.538 415.862 487.25Z" fill="#5C63AB"/>
<path fill-rule="evenodd" clip-rule="evenodd" d="M419.781 408.211L451.679 431.635C460.331 433.97 467.559 436.874 473.364 440.349C474.735 441.598 476.392 444.128 470.705 443.691C465.019 443.254 459.018 443.049 458.233 444.989C457.449 446.929 460.89 449.248 459.304 451.865C458.246 453.61 453.251 449.235 444.317 438.741L412.73 425.642L419.781 408.211ZM297.308 409.02L318.205 409.102C305.302 450.756 298.336 472.857 297.308 475.406C294.994 481.14 299.891 489.874 301.985 494.567C295.165 497.619 295.891 486.317 287.288 490.319C279.435 493.973 273.462 500.592 264.389 494.994C263.274 494.306 262.051 491.715 265.005 489.69C272.362 484.645 282.965 475.815 284.398 472.908C286.352 468.945 290.655 447.649 297.308 409.02Z" fill="#915B3C"/>
<path fill-rule="evenodd" clip-rule="evenodd" d="M356.695 321.332L365.342 319.849C397.425 347.564 410.603 400.809 449.93 429.015L440.464 440.748C372.24 432.3 355.33 367.355 356.695 321.332Z" fill="#E87613"/>
<path fill-rule="evenodd" clip-rule="evenodd" d="M319 430C353.672 430 379.176 430 395.511 430C399.008 430 398.349 424.952 397.843 422.404C392.011 393.004 369.241 361.312 369.241 319.461L347.172 316C328.917 345.358 322.605 381.505 319 430Z" fill="#DDE3E9"/>
<path fill-rule="evenodd" clip-rule="evenodd" d="M319.615 344.858C316.41 343.937 313.871 341.788 312 338.411C303.934 323.856 306.847 315.842 315.467 313.208C324.088 310.574 331.775 316 345.51 316C346.257 316 346.941 316.047 347.563 316.14L354.472 316.535C374.294 383.715 379.761 428.537 370.872 451H310.652C307.084 459.32 303.67 466.32 300.409 472H284C282.456 422.067 294.327 379.686 319.615 344.858Z" fill="#FF9B21"/>
<path fill-rule="evenodd" clip-rule="evenodd" d="M323.765 416.498C325.659 432.344 328.737 443.845 333 451H310.652C314.814 441.295 319.185 429.794 323.765 416.498Z" fill="black" fill-opacity="0.1"/>
<defs>
<clipPath id="clip0">
<rect width="336" height="452" fill="white" transform="translate(-4 141)"/>
</clipPath>
</defs>
</svg>
