<svg width="622" height="823" viewBox="0 0 622 823" fill="none" xmlns="http://www.w3.org/2000/svg">
    <circle cx="210.5" cy="411.5" r="411.5" fill="#FCE4EC"/>
    <path opacity="0.7" fill-rule="evenodd" clip-rule="evenodd" d="M101.822 307.77C115.474 307.062 132.359 315.031 133.815 329.871C134.873 340.653 134.546 351.405 136.183 362.172C137.492 370.776 140.261 379.036 144.038 386.874C147.67 394.411 155.203 400.827 157.162 408.879C158.411 414.01 157.712 421.227 155.99 426.245C153.896 432.347 155.009 431.865 159.182 436.985C167.359 447.018 174.723 457.307 179.93 469.29C187.43 486.55 192.348 506.725 189.564 525.618C189.21 528.017 188.79 536.627 185.486 537.229C181.796 537.902 183.522 532.978 183.719 531.387C184.974 521.238 186.089 512.367 184.575 502.059C178.732 462.288 150.201 436.085 131.623 402.331C130.602 400.59 128.446 396.445 126.947 393.711C124.58 389.393 122.201 381.179 118.997 377.977C112.963 371.947 118.511 384.071 119.686 386.385C121.173 389.313 122.808 392.425 124.332 394.99C131.302 406.882 139.082 419.862 146.28 432.121C115.147 439.214 93.2208 401.785 84.866 377.178C77.9824 356.905 69.7463 309.505 101.822 307.77Z" fill="#69A1AC"/>
</svg>
