<svg  viewBox="0 0 832 887" fill="none" xmlns="http://www.w3.org/2000/svg">
<circle cx="335" cy="390" r="497" fill="#E0F7FD"/>
<path fill-rule="evenodd" clip-rule="evenodd" d="M743.603 195H682.207C680.794 192.135 680 188.91 680 185.5C680 173.626 689.626 164 701.5 164C710.606 164 718.389 169.661 721.524 177.655C723.621 176.596 725.991 176 728.5 176C737.06 176 744 182.94 744 191.5C744 192.704 743.863 193.875 743.603 195Z" fill="white"/>
<path fill-rule="evenodd" clip-rule="evenodd" d="M560.397 327H646.603C646.863 325.875 647 324.704 647 323.5C647 314.94 640.06 308 631.5 308C628.991 308 626.621 308.596 624.524 309.655C621.389 301.661 613.606 296 604.5 296C595.032 296 586.994 302.12 584.125 310.619C581.659 308.965 578.692 308 575.5 308C566.94 308 560 314.94 560 323.5C560 324.704 560.137 325.875 560.397 327Z" fill="white"/>
<path fill-rule="evenodd" clip-rule="evenodd" d="M290.762 130.506H456.238C456.737 128.347 457 126.098 457 123.787C457 107.355 443.679 94.0345 427.247 94.0345C422.43 94.0345 417.881 95.1791 413.856 97.2112C407.839 81.8658 392.898 71 375.42 71C357.246 71 341.816 82.7469 336.308 99.0621C331.575 95.8868 325.88 94.0345 319.753 94.0345C303.321 94.0345 290 107.355 290 123.787C290 126.098 290.263 128.347 290.762 130.506Z" fill="white"/>
<path fill-rule="evenodd" clip-rule="evenodd" d="M-23.6032 179H62.6032C62.8628 177.875 63 176.704 63 175.5C63 166.94 56.0604 160 47.5 160C44.9907 160 42.6206 160.596 40.5238 161.655C37.3893 153.661 29.6057 148 20.5 148C11.0323 148 2.99391 154.12 0.124634 162.619C-2.34099 160.965 -5.3078 160 -8.5 160C-17.0604 160 -24 166.94 -24 175.5C-24 176.704 -23.8628 177.875 -23.6032 179Z" fill="white"/>
</svg>
