<svg width="246" height="51" viewBox="0 0 246 51" fill="none" xmlns="http://www.w3.org/2000/svg">
<path d="M81.0985 30.2471C79.206 30.2448 77.3915 29.4567 76.0532 28.0554C74.715 26.6541 73.9622 24.7542 73.9601 22.7724V2.2121H75.3126V22.7724C75.2959 23.5789 75.4332 24.3807 75.7164 25.1308C75.9997 25.8809 76.4231 26.5643 76.9619 27.1409C77.5007 27.7174 78.144 28.1754 78.8541 28.4881C79.5642 28.8008 80.3268 28.9619 81.0972 28.9619C81.8675 28.9619 82.6301 28.8008 83.3403 28.4881C84.0504 28.1754 84.6937 27.7174 85.2325 27.1409C85.7713 26.5643 86.1947 25.8809 86.478 25.1308C86.7612 24.3807 86.8985 23.5789 86.8818 22.7724V2.2121H88.2343V22.7724C88.2329 24.7539 87.4807 26.6538 86.1429 28.0552C84.8051 29.4565 82.9909 30.2448 81.0985 30.2471Z" fill="#EF5350"/>
<path d="M68.1768 30.2471C66.2856 30.2426 64.4732 29.4534 63.1367 28.0523C61.8002 26.6513 61.0485 24.7527 61.0464 22.7724V2.2121H62.3989V22.7724C62.3822 23.5789 62.5196 24.3807 62.8028 25.1308C63.086 25.8809 63.5094 26.5643 64.0482 27.1409C64.587 27.7174 65.2304 28.1754 65.9405 28.4881C66.6506 28.8008 67.4132 28.9619 68.1835 28.9619C68.9539 28.9619 69.7165 28.8008 70.4266 28.4881C71.1367 28.1754 71.78 27.7174 72.3188 27.1409C72.8576 26.5643 73.2811 25.8809 73.5643 25.1308C73.8475 24.3807 73.9848 23.5789 73.9682 22.7724V2.2121H75.3207V22.7724C75.3192 24.7554 74.5659 26.6565 73.2264 28.0581C71.8868 29.4597 70.0705 30.2471 68.1768 30.2471Z" fill="#EF5350"/>
<path d="M68.1768 24.3217C67.4811 24.321 66.8141 24.0313 66.3222 23.5162C65.8303 23.0011 65.5536 22.3028 65.5529 21.5743V2.27438H66.9054V21.5743C66.9054 21.9274 67.0394 22.2659 67.2778 22.5156C67.5162 22.7652 67.8396 22.9055 68.1768 22.9055C68.514 22.9055 68.8373 22.7652 69.0758 22.5156C69.3142 22.2659 69.4481 21.9274 69.4481 21.5743V2.27438H70.8006V21.5743C70.7992 22.3025 70.5223 23.0005 70.0305 23.5154C69.5388 24.0303 68.8722 24.3202 68.1768 24.3217Z" fill="#EF5350"/>
<path d="M66.2292 5.80356C67.1973 5.80356 67.982 4.98183 67.982 3.96817C67.982 2.95451 67.1973 2.13278 66.2292 2.13278C65.2611 2.13278 64.4763 2.95451 64.4763 3.96817C64.4763 4.98183 65.2611 5.80356 66.2292 5.80356Z" fill="#EF5350"/>
<path d="M70.1244 5.80356C71.0924 5.80356 71.8772 4.98183 71.8772 3.96817C71.8772 2.95451 71.0924 2.13278 70.1244 2.13278C69.1563 2.13278 68.3715 2.95451 68.3715 3.96817C68.3715 4.98183 69.1563 5.80356 70.1244 5.80356Z" fill="#EF5350"/>
<path d="M81.1608 24.3217C80.4651 24.321 79.7981 24.0313 79.3062 23.5162C78.8143 23.0011 78.5376 22.3028 78.5369 21.5743V2.27438H79.8894V21.5743C79.8894 21.9274 80.0234 22.2659 80.2618 22.5156C80.5002 22.7652 80.8236 22.9055 81.1608 22.9055C81.498 22.9055 81.8213 22.7652 82.0598 22.5156C82.2982 22.2659 82.4321 21.9274 82.4321 21.5743V2.27438H83.7846V21.5743C83.7832 22.3025 83.5063 23.0005 83.0145 23.5154C82.5228 24.0303 81.8562 24.3202 81.1608 24.3217Z" fill="#EF5350"/>
<path d="M79.2132 5.80356C80.1812 5.80356 80.966 4.98183 80.966 3.96817C80.966 2.95451 80.1812 2.13278 79.2132 2.13278C78.2451 2.13278 77.4603 2.95451 77.4603 3.96817C77.4603 4.98183 78.2451 5.80356 79.2132 5.80356Z" fill="#EF5350"/>
<path d="M83.1084 5.80356C84.0764 5.80356 84.8612 4.98183 84.8612 3.96817C84.8612 2.95451 84.0764 2.13278 83.1084 2.13278C82.1403 2.13278 81.3555 2.95451 81.3555 3.96817C81.3555 4.98183 82.1403 5.80356 83.1084 5.80356Z" fill="#EF5350"/>
<path d="M74.6363 5.80356C75.6044 5.80356 76.3892 4.98183 76.3892 3.96817C76.3892 2.95451 75.6044 2.13278 74.6363 2.13278C73.6683 2.13278 72.8835 2.95451 72.8835 3.96817C72.8835 4.98183 73.6683 5.80356 74.6363 5.80356Z" fill="#EF5350"/>
<path d="M87.5581 5.80356C88.5262 5.80356 89.3109 4.98183 89.3109 3.96817C89.3109 2.95451 88.5262 2.13278 87.5581 2.13278C86.59 2.13278 85.8053 2.95451 85.8053 3.96817C85.8053 4.98183 86.59 5.80356 87.5581 5.80356Z" fill="#EF5350"/>
<path d="M61.7145 5.80356C62.6826 5.80356 63.4674 4.98183 63.4674 3.96817C63.4674 2.95451 62.6826 2.13278 61.7145 2.13278C60.7465 2.13278 59.9617 2.95451 59.9617 3.96817C59.9617 4.98183 60.7465 5.80356 61.7145 5.80356Z" fill="#EF5350"/>
<path d="M110.918 29.9553H104.256C100.616 29.9553 97.1249 28.4412 94.5509 25.746C91.9769 23.0508 90.5309 19.3954 90.5309 15.5838C90.5309 11.7722 91.9769 8.11681 94.5509 5.42163C97.1249 2.72644 100.616 1.21225 104.256 1.21225H117.31V2.62844H104.256C100.975 2.62844 97.8276 3.99339 95.5073 6.42299C93.1869 8.85259 91.8834 12.1478 91.8834 15.5838C91.8834 19.0198 93.1869 22.3151 95.5073 24.7447C97.8276 27.1743 100.975 28.5391 104.256 28.5391H110.918C111.679 28.5565 112.434 28.4147 113.142 28.1221C113.849 27.8295 114.493 27.3919 115.036 26.8351C115.58 26.2783 116.012 25.6135 116.306 24.8796C116.601 24.1457 116.753 23.3575 116.753 22.5614C116.753 21.7652 116.601 20.9771 116.306 20.2433C116.012 19.5094 115.58 18.8446 115.036 18.2878C114.493 17.731 113.849 17.2934 113.142 17.0007C112.434 16.7081 111.679 16.5663 110.918 16.5836H104.129V15.1674H110.918C111.857 15.1482 112.791 15.3253 113.663 15.6882C114.536 16.0511 115.331 16.5927 116.002 17.2812C116.672 17.9696 117.205 18.7913 117.568 19.6979C117.932 20.6046 118.119 21.578 118.119 22.5614C118.119 23.5447 117.932 24.5182 117.568 25.4249C117.205 26.3315 116.672 27.1531 116.002 27.8416C115.331 28.5301 114.536 29.0717 113.663 29.4346C112.791 29.7976 111.857 29.9746 110.918 29.9553Z" fill="#EF5350"/>
<path d="M111.459 24.3217H104.467C102.253 24.3217 100.13 23.4009 98.5644 21.7617C96.9989 20.1225 96.1194 17.8991 96.1194 15.581C96.1194 13.2628 96.9989 11.0395 98.5644 9.40032C100.13 7.76111 102.253 6.84024 104.467 6.84024H115.417V8.25644H104.467C102.612 8.25644 100.833 9.02813 99.5207 10.4017C98.2089 11.7754 97.4719 13.6384 97.4719 15.581C97.4719 17.5236 98.2089 19.3866 99.5207 20.7602C100.833 22.1339 102.612 22.9055 104.467 22.9055H111.459V24.3217Z" fill="#EF5350"/>
<path d="M113.91 9.37802C114.878 9.37802 115.663 8.55629 115.663 7.54263C115.663 6.52898 114.878 5.70724 113.91 5.70724C112.942 5.70724 112.157 6.52898 112.157 7.54263C112.157 8.55629 112.942 9.37802 113.91 9.37802Z" fill="#EF5350"/>
<path d="M110.248 25.4404C111.216 25.4404 112 24.6187 112 23.605C112 22.5914 111.216 21.7697 110.248 21.7697C109.28 21.7697 108.495 22.5914 108.495 23.605C108.495 24.6187 109.28 25.4404 110.248 25.4404Z" fill="#EF5350"/>
<path d="M115.663 3.67078C116.631 3.67078 117.416 2.84905 117.416 1.83539C117.416 0.821731 116.631 0 115.663 0C114.695 0 113.91 0.821731 113.91 1.83539C113.91 2.84905 114.695 3.67078 115.663 3.67078Z" fill="#EF5350"/>
<path d="M104.137 17.7109C105.105 17.7109 105.89 16.8891 105.89 15.8755C105.89 14.8618 105.105 14.0401 104.137 14.0401C103.169 14.0401 102.384 14.8618 102.384 15.8755C102.384 16.8891 103.169 17.7109 104.137 17.7109Z" fill="#EF5350"/>
<path d="M16.2116 24.2311H0.184494V22.8149H16.2116C17.9693 22.8149 19.6549 22.0838 20.8978 20.7824C22.1406 19.4811 22.8389 17.716 22.8389 15.8755C22.8389 14.0351 22.1406 12.2701 20.8978 10.9687C19.6549 9.66733 17.9693 8.93618 16.2116 8.93618H7.89644V14.1761H6.54395V7.51999H16.2116C18.328 7.51999 20.3577 8.40031 21.8541 9.96728C23.3506 11.5343 24.1914 13.6595 24.1914 15.8755C24.1914 18.0916 23.3506 20.2168 21.8541 21.7838C20.3577 23.3508 18.328 24.2311 16.2116 24.2311Z" fill="#EF5350"/>
<path d="M16.2116 30.2471H0.184494V28.8309H16.2116C19.493 28.8309 22.6401 27.4659 24.9604 25.0363C27.2807 22.6067 28.5843 19.3115 28.5843 15.8755C28.5843 12.4396 27.2807 9.14434 24.9604 6.71474C22.6401 4.28514 19.493 2.92019 16.2116 2.92019H2.48645V14.1761H1.13395V1.504H16.2116C19.8517 1.504 23.3428 3.01819 25.9168 5.71337C28.4907 8.40856 29.9368 12.064 29.9368 15.8755C29.9368 19.6871 28.4907 23.3426 25.9168 26.0378C23.3428 28.733 19.8517 30.2471 16.2116 30.2471Z" fill="#EF5350"/>
<path d="M1.75284 31.3743C2.72091 31.3743 3.50568 30.5526 3.50568 29.5389C3.50568 28.5253 2.72091 27.7036 1.75284 27.7036C0.784773 27.7036 0 28.5253 0 29.5389C0 30.5526 0.784773 31.3743 1.75284 31.3743Z" fill="#EF5350"/>
<path d="M1.75284 25.3583C2.72091 25.3583 3.50568 24.5366 3.50568 23.523C3.50568 22.5093 2.72091 21.6876 1.75284 21.6876C0.784773 21.6876 0 22.5093 0 23.523C0 24.5366 0.784773 25.3583 1.75284 25.3583Z" fill="#EF5350"/>
<path d="M1.75284 16.0114C2.72091 16.0114 3.50568 15.1897 3.50568 14.1761C3.50568 13.1624 2.72091 12.3407 1.75284 12.3407C0.784773 12.3407 0 13.1624 0 14.1761C0 15.1897 0.784773 16.0114 1.75284 16.0114Z" fill="#EF5350"/>
<path d="M7.16284 15.6602C8.13091 15.6602 8.91568 14.8385 8.91568 13.8248C8.91568 12.8112 8.13091 11.9894 7.16284 11.9894C6.19478 11.9894 5.41 12.8112 5.41 13.8248C5.41 14.8385 6.19478 15.6602 7.16284 15.6602Z" fill="#EF5350"/>
<path d="M50.9297 30.1139H31.2914V28.6977H50.9297C52.4422 28.6634 53.8818 28.0103 54.9399 26.8781C55.9981 25.7459 56.5906 24.2247 56.5906 22.6406C56.5906 21.0565 55.9981 19.5354 54.9399 18.4032C53.8818 17.271 52.4422 16.6178 50.9297 16.5836H37.7537V15.1674H50.9297C52.7985 15.2055 54.5785 16.0096 55.8873 17.4069C57.1961 18.8043 57.9293 20.6834 57.9293 22.6406C57.9293 24.5978 57.1961 26.4769 55.8873 27.8743C54.5785 29.2717 52.7985 30.0758 50.9297 30.1139Z" fill="#EF5350"/>
<path d="M32.909 31.2412C33.8771 31.2412 34.6619 30.4194 34.6619 29.4058C34.6619 28.3921 33.8771 27.5704 32.909 27.5704C31.941 27.5704 31.1562 28.3921 31.1562 29.4058C31.1562 30.4194 31.941 31.2412 32.909 31.2412Z" fill="#EF5350"/>
<path d="M49.2743 16.5836H37.7537C36.8047 16.603 35.8616 16.424 34.9795 16.0571C34.0974 15.6903 33.294 15.1429 32.6164 14.447C31.9388 13.7511 31.4005 12.9207 31.033 12.0044C30.6655 11.0881 30.4762 10.1042 30.4762 9.11039C30.4762 8.11656 30.6655 7.13271 31.033 6.21639C31.4005 5.30007 31.9388 4.46967 32.6164 3.7738C33.294 3.07792 34.0974 2.53058 34.9795 2.16371C35.8616 1.79683 36.8047 1.61778 37.7537 1.63713H57.3892V3.05332H37.7537C36.9835 3.03588 36.2177 3.17968 35.5013 3.47624C34.7849 3.7728 34.1323 4.21617 33.5817 4.78035C33.0311 5.34452 32.5937 6.01815 32.2951 6.7617C31.9964 7.50526 31.8426 8.30375 31.8426 9.11039C31.8426 9.91702 31.9964 10.7156 32.2951 11.4591C32.5937 12.2027 33.0311 12.8763 33.5817 13.4405C34.1323 14.0047 34.7849 14.448 35.5013 14.7446C36.2177 15.0412 36.9835 15.1849 37.7537 15.1675H49.2743V16.5836Z" fill="#EF5350"/>
<path d="M49.726 25.3866H31.2914V23.9704H49.726C50.0632 23.9704 50.3865 23.8301 50.625 23.5805C50.8634 23.3308 50.9973 22.9923 50.9973 22.6392C50.9973 22.2862 50.8634 21.9475 50.625 21.6979C50.3865 21.4482 50.0632 21.308 49.726 21.308H37.7537V19.8918H49.726C50.4219 19.8918 51.0893 20.1813 51.5813 20.6965C52.0734 21.2118 52.3498 21.9106 52.3498 22.6392C52.3498 23.3679 52.0734 24.0667 51.5813 24.5819C51.0893 25.0972 50.4219 25.3866 49.726 25.3866Z" fill="#EF5350"/>
<path d="M32.909 26.5169C33.8771 26.5169 34.6619 25.6952 34.6619 24.6815C34.6619 23.6679 33.8771 22.8461 32.909 22.8461C31.941 22.8461 31.1562 23.6679 31.1562 24.6815C31.1562 25.6952 31.941 26.5169 32.909 26.5169Z" fill="#EF5350"/>
<path d="M39.4037 22.4382C40.3718 22.4382 41.1566 21.6164 41.1566 20.6028C41.1566 19.5891 40.3718 18.7674 39.4037 18.7674C38.4357 18.7674 37.6509 19.5891 37.6509 20.6028C37.6509 21.6164 38.4357 22.4382 39.4037 22.4382Z" fill="#EF5350"/>
<path d="M50.9297 11.7913H38.9574C38.2615 11.7913 37.5941 11.5018 37.102 10.9866C36.61 10.4713 36.3335 9.77251 36.3335 9.04385C36.3335 8.31519 36.61 7.61639 37.102 7.10115C37.5941 6.58591 38.2615 6.29645 38.9574 6.29645H57.3892V7.71264H38.9574C38.6202 7.71264 38.2968 7.85286 38.0584 8.10251C37.82 8.35216 37.686 8.69079 37.686 9.04385C37.686 9.39691 37.82 9.73547 38.0584 9.98512C38.2968 10.2348 38.6202 10.3751 38.9574 10.3751H50.9297V11.7913Z" fill="#EF5350"/>
<path d="M55.7365 8.84271C56.7046 8.84271 57.4893 8.02098 57.4893 7.00732C57.4893 5.99367 56.7046 5.17194 55.7365 5.17194C54.7684 5.17194 53.9837 5.99367 53.9837 7.00732C53.9837 8.02098 54.7684 8.84271 55.7365 8.84271Z" fill="#EF5350"/>
<path d="M49.2851 12.9213C50.2531 12.9213 51.0379 12.0996 51.0379 11.0859C51.0379 10.0723 50.2531 9.25055 49.2851 9.25055C48.317 9.25055 47.5322 10.0723 47.5322 11.0859C47.5322 12.0996 48.317 12.9213 49.2851 12.9213Z" fill="#EF5350"/>
<path d="M55.7365 4.18057C56.7046 4.18057 57.4893 3.35884 57.4893 2.34518C57.4893 1.33153 56.7046 0.509796 55.7365 0.509796C54.7684 0.509796 53.9837 1.33153 53.9837 2.34518C53.9837 3.35884 54.7684 4.18057 55.7365 4.18057Z" fill="#EF5350"/>
<path d="M34.0478 49.3996C33.4608 49.7055 32.2842 50.0142 30.7748 50.0142C27.2799 50.0142 24.6507 47.703 24.6507 43.4488C24.6507 39.3843 27.2799 36.6312 31.1237 36.6312C32.671 36.6312 33.6448 36.9767 34.0667 37.1977L33.6799 38.5657C32.8955 38.1934 32.0417 38.0086 31.1805 38.0247C28.2726 38.0247 26.344 39.9706 26.344 43.378C26.344 46.5559 28.0914 48.598 31.1075 48.598C32.0039 48.6112 32.893 48.4279 33.7178 48.0599L34.0478 49.3996Z" fill="#EF5350"/>
<path d="M46.2636 43.1967C46.2636 47.6662 43.6695 50.0341 40.5046 50.0341C37.2316 50.0341 34.9323 47.3773 34.9323 43.4488C34.9323 39.3276 37.3668 36.6312 40.6886 36.6312C44.0725 36.6312 46.2636 39.3333 46.2636 43.1967ZM36.6419 43.4091C36.6419 46.182 38.0783 48.666 40.5966 48.666C43.115 48.666 44.5703 46.2217 44.5703 43.2845C44.5703 40.7013 43.2827 38.0078 40.6155 38.0078C37.9484 38.0078 36.6419 40.5597 36.6419 43.4091Z" fill="#EF5350"/>
<path d="M48.3329 37.0166C49.4588 36.833 50.5963 36.7383 51.7358 36.7334C54.035 36.7334 55.6716 37.2998 56.7563 38.3507C57.841 39.4015 58.5037 40.8998 58.5037 43.0099C58.5037 45.1201 57.8788 46.862 56.7211 48.0573C55.5634 49.2525 53.6482 49.9238 51.2408 49.9238C50.2695 49.93 49.2987 49.879 48.3329 49.7709V37.0166ZM49.9343 48.4935C50.4719 48.571 51.0147 48.6031 51.5573 48.5897C54.9791 48.5897 56.8374 46.5872 56.8374 43.0836C56.8537 40.0218 55.1982 38.0759 51.8142 38.0759C51.1854 38.0653 50.5571 38.1232 49.9397 38.2487L49.9343 48.4935Z" fill="#EF5350"/>
<path d="M67.0109 43.7377H62.1933V48.4168H67.5627V49.833H60.5919V36.8549H67.2868V38.2711H62.1933V42.3724H67.0109V43.7377Z" fill="#EF5350"/>
<path d="M19.3867 46.0065C20.3548 46.0065 21.1396 45.1848 21.1396 44.1711C21.1396 43.1575 20.3548 42.3358 19.3867 42.3358C18.4187 42.3358 17.6339 43.1575 17.6339 44.1711C17.6339 45.1848 18.4187 46.0065 19.3867 46.0065Z" fill="#EF5350"/>
<path d="M78.1339 36.8436H84.8098V38.2598H79.7352V42.5735H84.423V43.9586H79.7352V49.8131H78.1339V36.8436Z" fill="#EF5350"/>
<path d="M97.6856 43.1967C97.6856 47.6662 95.0915 50.0341 91.9294 50.0341C88.6563 50.0341 86.3571 47.3773 86.3571 43.4488C86.3571 39.3276 88.7916 36.6312 92.1133 36.6312C95.4973 36.6312 97.6856 39.3333 97.6856 43.1967ZM88.0666 43.4091C88.0666 46.182 89.5003 48.666 92.0213 48.666C94.5424 48.666 95.9923 46.2217 95.9923 43.2845C95.9923 40.7013 94.7074 38.0078 92.0403 38.0078C89.3731 38.0078 88.0666 40.5597 88.0666 43.4091Z" fill="#EF5350"/>
<path d="M99.7658 37.0164C100.779 36.8231 101.806 36.7283 102.836 36.7332C104.548 36.7332 105.652 37.0589 106.423 37.7925C106.743 38.1069 106.996 38.4894 107.164 38.9144C107.332 39.3393 107.411 39.797 107.397 40.2566C107.397 41.9702 106.369 43.106 105.062 43.5677V43.6271C106.02 43.9727 106.588 44.8989 106.883 46.2471C107.288 48.057 107.58 49.3089 107.84 49.8074H106.185C105.982 49.4421 105.706 48.3261 105.357 46.7088C104.989 44.9159 104.326 44.2418 102.874 44.1851H101.364V49.8131H99.7658V37.0164ZM101.364 42.9275H103.001C104.713 42.9275 105.798 41.9447 105.798 40.4634C105.798 38.7866 104.64 38.0558 102.947 38.036C102.415 38.0203 101.884 38.0717 101.364 38.189V42.9275Z" fill="#EF5350"/>
<path d="M72.8537 46.0065C73.8218 46.0065 74.6066 45.1848 74.6066 44.1711C74.6066 43.1575 73.8218 42.3358 72.8537 42.3358C71.8857 42.3358 71.1009 43.1575 71.1009 44.1711C71.1009 45.1848 71.8857 46.0065 72.8537 46.0065Z" fill="#EF5350"/>
<path d="M118.758 47.7825C119.625 48.3284 120.616 48.6217 121.628 48.6322C123.264 48.6322 124.222 47.7259 124.222 46.4173C124.222 45.205 123.559 44.5111 121.885 43.837C119.861 43.0864 118.611 41.9874 118.611 40.1549C118.611 38.1325 120.213 36.6314 122.62 36.6314C123.57 36.5983 124.513 36.8166 125.36 37.2658L124.92 38.6339C124.197 38.2252 123.388 38.0129 122.566 38.0165C120.873 38.0165 120.229 39.0757 120.229 39.9623C120.229 41.1745 120.984 41.7722 122.693 42.4661C124.792 43.3158 125.858 44.3723 125.858 46.2785C125.858 48.281 124.441 50.0144 121.517 50.0144C120.321 50.0144 119.017 49.6491 118.354 49.1874L118.758 47.7825Z" fill="#EF5350"/>
<path d="M130.051 45.7404L128.766 49.8133H127.111L131.322 36.8353H133.254L137.482 49.8133H135.772L134.449 45.7319L130.051 45.7404ZM134.108 44.4318L132.894 40.6959C132.623 39.8462 132.434 39.0757 132.25 38.3251H132.215C132.031 39.0955 131.828 39.8858 131.59 40.676L130.384 44.4318H134.108Z" fill="#EF5350"/>
<path d="M139.305 49.8133V36.8353H141.052L145.026 43.4008C145.854 44.7544 146.597 46.1632 147.249 47.6182L147.287 47.5984C147.138 45.8678 147.103 44.2874 147.103 42.265V36.8353H148.61V49.8133H146.987L143.051 43.228C142.195 41.8342 141.421 40.387 140.733 38.8944L140.679 38.9143C140.771 40.5514 140.809 42.112 140.809 44.2675V49.8133H139.305Z" fill="#EF5350"/>
<path d="M113.131 46.0065C114.099 46.0065 114.884 45.1848 114.884 44.1711C114.884 43.1575 114.099 42.3358 113.131 42.3358C112.163 42.3358 111.378 43.1575 111.378 44.1711C111.378 45.1848 112.163 46.0065 113.131 46.0065Z" fill="#EF5350"/>
<path d="M159.284 36.8436H165.96V38.2598H160.885V42.5735H165.573V43.9615H160.885V49.8131H159.284V36.8436Z" fill="#EF5350"/>
<path d="M168.243 37.0164C169.256 36.8231 170.283 36.7283 171.313 36.7332C173.023 36.7332 174.126 37.0589 174.9 37.7925C175.22 38.1069 175.473 38.4894 175.641 38.9144C175.809 39.3393 175.888 39.797 175.874 40.2566C175.874 41.9702 174.846 43.106 173.539 43.5677V43.6271C174.494 43.9727 175.065 44.8989 175.36 46.2471C175.765 48.057 176.058 49.3089 176.317 49.8074H174.656C174.453 49.4421 174.178 48.3261 173.829 46.7088C173.461 44.9159 172.798 44.2418 171.345 44.1851H169.841V49.8131H168.243V37.0164ZM169.841 42.9275H171.464C173.177 42.9275 174.261 41.9447 174.261 40.4634C174.261 38.7866 173.101 38.0558 171.41 38.036C170.879 38.0193 170.347 38.0717 169.828 38.1918L169.841 42.9275Z" fill="#EF5350"/>
<path d="M180.234 45.7404L178.946 49.8133H177.291L181.503 36.8353H183.434L187.665 49.8133H185.955L184.63 45.7319L180.234 45.7404ZM184.292 44.4318L183.077 40.6959C182.806 39.8462 182.617 39.0757 182.433 38.3251H182.395C182.211 39.0955 182.009 39.8858 181.77 40.676L180.564 44.4318H184.292Z" fill="#EF5350"/>
<path d="M189 49.978V37H190.747L194.721 43.5655C195.549 44.9191 196.292 46.3279 196.945 47.7829L196.982 47.7631C196.834 46.0325 196.799 44.4521 196.799 42.4297V37H198.305V49.978H196.682L192.746 43.3927C191.89 41.9989 191.116 40.5517 190.428 39.0592L190.374 39.079C190.466 40.7161 190.504 42.2767 190.504 44.4322V49.978H189Z" fill="#EF5350"/>
<path d="M209.873 49.3996C209.284 49.7084 208.107 50.0142 206.6 50.0142C203.105 50.0142 200.473 47.703 200.473 43.4488C200.473 39.3843 203.105 36.6312 206.949 36.6312C208.494 36.6312 209.468 36.9767 209.892 37.1977L209.505 38.5657C208.72 38.1934 207.865 38.0086 207.003 38.0247C204.098 38.0247 202.167 39.9706 202.167 43.378C202.167 46.5559 203.914 48.598 206.93 48.598C207.828 48.6111 208.718 48.4279 209.543 48.0599L209.873 49.3996Z" fill="#EF5350"/>
<path d="M213.479 36.8438V49.8133H211.878V36.8353L213.479 36.8438Z" fill="#EF5350"/>
<path d="M216.054 47.7825C216.922 48.3284 217.912 48.6217 218.924 48.6322C220.561 48.6322 221.516 47.7259 221.516 46.4173C221.516 45.205 220.856 44.5111 219.181 43.837C217.158 43.0864 215.908 41.9874 215.908 40.1549C215.908 38.1325 217.507 36.6314 219.917 36.6314C220.867 36.5983 221.809 36.8166 222.657 37.2658L222.216 38.6339C221.492 38.2256 220.682 38.0134 219.86 38.0165C218.17 38.0165 217.526 39.0757 217.526 39.9623C217.526 41.1745 218.28 41.7722 219.99 42.4661C222.086 43.3158 223.152 44.3723 223.152 46.2785C223.152 48.281 221.737 50.0144 218.824 50.0144C217.629 50.0144 216.322 49.6491 215.659 49.1874L216.054 47.7825Z" fill="#EF5350"/>
<path d="M233.994 49.3996C233.407 49.7084 232.23 50.0142 230.721 50.0142C227.226 50.0142 224.597 47.703 224.597 43.4488C224.597 39.3843 227.226 36.6312 231.07 36.6312C232.614 36.6312 233.591 36.9767 234.013 37.1977L233.626 38.5657C232.841 38.1934 231.988 38.0086 231.127 38.0247C228.219 38.0247 226.287 39.9706 226.287 43.378C226.287 46.5559 228.035 48.598 231.053 48.598C231.95 48.6112 232.839 48.4279 233.664 48.0599L233.994 49.3996Z" fill="#EF5350"/>
<path d="M246.218 43.1967C246.218 47.6662 243.626 50.0341 240.461 50.0341C237.188 50.0341 234.889 47.3773 234.889 43.4488C234.889 39.3276 237.324 36.6312 240.645 36.6312C244.029 36.6312 246.218 39.3474 246.218 43.1967ZM236.599 43.4091C236.599 46.182 238.035 48.666 240.553 48.666C243.072 48.666 244.527 46.2217 244.527 43.2845C244.527 40.7042 243.239 38.0078 240.572 38.0078C237.905 38.0078 236.599 40.5597 236.599 43.4091Z" fill="#EF5350"/>
<path d="M8.59023 38.7668C9.61326 38.7663 10.6135 39.0834 11.4643 39.6781C12.3152 40.2729 12.9786 41.1184 13.3704 42.1079C13.7623 43.0974 13.8651 44.1864 13.6658 45.2371C13.4666 46.2878 12.9742 47.253 12.251 48.0107C11.5278 48.7683 10.6063 49.2844 9.60292 49.4936C8.59959 49.7028 7.55954 49.5957 6.61433 49.1859C5.66912 48.7761 4.86121 48.082 4.29279 47.1914C3.72437 46.3007 3.42097 45.2536 3.42097 44.1824C3.42312 42.7473 3.96834 41.3715 4.93722 40.3564C5.9061 39.3414 7.21967 38.7698 8.59023 38.7668ZM8.59023 37.3506C7.29981 37.3506 6.03837 37.7513 4.96543 38.502C3.89249 39.2526 3.05623 40.3196 2.56241 41.5679C2.06859 42.8163 1.93939 44.1899 2.19113 45.5152C2.44288 46.8404 3.06428 48.0577 3.97674 49.0131C4.8892 49.9686 6.05175 50.6192 7.31737 50.8828C8.58299 51.1464 9.89484 51.0111 11.087 50.4941C12.2792 49.977 13.2982 49.1013 14.0151 47.9778C14.732 46.8543 15.1147 45.5336 15.1147 44.1824C15.1147 42.3705 14.4273 40.6328 13.2037 39.3516C11.9801 38.0704 10.3206 37.3506 8.59023 37.3506Z" fill="#EF5350"/>
<path d="M12.7622 44.171C12.7622 45.5164 12.1481 46.335 11.8803 46.335C11.6126 46.335 11.0066 45.5249 10.9985 44.1937V44.171C10.998 43.331 10.7151 42.5178 10.1995 41.8742C9.68389 41.2306 8.96839 40.7975 8.17841 40.6509C7.38842 40.5043 6.57435 40.6535 5.87887 41.0723C5.18338 41.4911 4.65085 42.1528 4.3746 42.9416C4.09835 43.7303 4.09601 44.5957 4.36798 45.386C4.63995 46.1764 5.16889 46.8413 5.86209 47.2642C6.55529 47.6872 7.36854 47.8412 8.15931 47.6992C8.95008 47.5573 9.66791 47.1285 10.187 46.4879C10.5955 47.2612 11.2068 47.7512 11.8885 47.7512C13.1219 47.7512 14.1228 46.1481 14.1228 44.171H12.7622ZM7.59022 46.3236C7.18362 46.3236 6.78616 46.1974 6.44808 45.9609C6.11001 45.7243 5.84651 45.3881 5.69091 44.9948C5.53531 44.6014 5.4946 44.1687 5.57393 43.7511C5.65325 43.3335 5.84905 42.95 6.13655 42.6489C6.42406 42.3479 6.79037 42.1428 7.18916 42.0598C7.58794 41.9767 8.00129 42.0194 8.37694 42.1823C8.75259 42.3452 9.07366 42.6211 9.29956 42.9751C9.52545 43.3291 9.64602 43.7453 9.64602 44.171V44.1908C9.64033 44.7581 9.42131 45.3001 9.03646 45.6993C8.65162 46.0986 8.13197 46.3229 7.59022 46.3236Z" fill="#EF5350"/>
<path d="M153.977 46.0065C154.945 46.0065 155.729 45.1848 155.729 44.1711C155.729 43.1575 154.945 42.3358 153.977 42.3358C153.009 42.3358 152.224 43.1575 152.224 44.1711C152.224 45.1848 153.009 46.0065 153.977 46.0065Z" fill="#EF5350"/>
</svg>
