<?xml version="1.0" standalone="no"?>
<!DOCTYPE svg PUBLIC "-//W3C//DTD SVG 20010904//EN"
 "http://www.w3.org/TR/2001/REC-SVG-20010904/DTD/svg10.dtd">
<svg version="1.0" xmlns="http://www.w3.org/2000/svg"
 width="1066.000000pt" height="1068.000000pt" viewBox="0 0 1066.000000 1068.000000"
 preserveAspectRatio="xMidYMid meet">

<g transform="translate(0.000000,1068.000000) scale(0.100000,-0.100000)"
fill="#000000" stroke="none">
<path d="M2485 9529 c-99 -3 -262 -7 -363 -8 -129 -1 -181 -4 -176 -12 4 -7
26 -8 64 -4 l58 7 7 -31 c6 -29 -8 -71 -24 -71 -8 0 -31 -51 -47 -105 -7 -23
-17 -31 -49 -38 -45 -10 -198 -1 -224 13 -9 5 -45 16 -81 24 -142 33 -254 40
-640 41 -407 0 -413 -1 -645 -56 -22 -6 -58 -14 -80 -18 -22 -4 -60 -17 -84
-29 -25 -12 -48 -22 -52 -22 -4 0 -39 -33 -78 -72 l-71 -73 0 -104 0 -104 53
7 c28 4 93 11 142 16 50 5 131 13 180 19 50 5 155 12 235 15 80 3 199 10 265
17 185 18 589 3 795 -30 222 -36 230 -36 1035 -34 336 1 617 1 625 0 8 -1 190
2 404 7 312 7 396 6 428 -5 33 -11 56 -11 131 0 378 54 552 62 1262 58 588 -4
743 -10 930 -36 187 -27 205 -21 138 48 -21 21 -57 62 -81 92 -24 30 -83 96
-132 148 -50 52 -90 98 -90 103 0 4 -15 8 -33 8 -18 0 -37 4 -42 9 -6 6 -59
14 -120 20 -134 12 -234 28 -258 41 -12 7 -24 7 -38 -1 -13 -7 -44 -8 -82 -4
-79 9 -568 10 -667 2 -41 -4 -97 -11 -125 -17 -62 -13 -180 -38 -220 -46 -16
-3 -39 -9 -50 -14 -26 -11 -136 -31 -204 -36 -45 -4 -52 -2 -42 9 8 11 5 23
-18 53 -34 47 -72 83 -103 98 -19 10 -23 20 -23 56 l0 45 103 3 c63 2 100 6
97 12 -7 11 -1721 11 -2010 -1z m1773 -42 c3 -22 -5 -36 -40 -67 -24 -22 -47
-39 -51 -40 -5 0 -26 14 -48 32 -31 25 -39 38 -39 64 0 37 7 39 115 39 58 0
60 -1 63 -28z m-1990 -20 c3 -32 0 -38 -24 -47 -14 -6 -35 -22 -46 -36 l-20
-25 -19 29 c-9 17 -27 33 -38 37 -16 5 -21 15 -21 39 0 18 3 36 7 40 4 4 41 5
83 4 l75 -3 3 -38z m166 27 c3 -9 6 -29 6 -45 0 -22 -6 -32 -25 -39 -14 -5
-25 -14 -25 -19 0 -20 -33 -21 -47 -1 -8 11 -21 20 -29 20 -10 0 -14 12 -14
43 0 24 3 47 7 50 3 4 32 7 64 7 43 0 58 -4 63 -16z m163 -29 c3 -33 -3 -46
-29 -74 l-31 -35 -36 21 c-31 18 -36 26 -39 63 -5 67 -1 71 70 68 l63 -3 2
-40z m181 6 c3 -26 -3 -40 -24 -62 -34 -36 -42 -36 -93 -2 -34 22 -41 32 -41
58 0 17 3 35 7 39 4 4 39 5 78 4 l70 -3 3 -34z m172 20 c16 -31 12 -39 -22
-57 -18 -10 -37 -23 -43 -30 -14 -19 -73 19 -81 52 -11 45 0 54 70 54 54 0 67
-3 76 -19z m170 -27 c0 -34 -7 -53 -27 -80 -16 -18 -31 -34 -35 -34 -4 0 -15
13 -24 29 -10 16 -28 35 -41 42 -18 10 -23 21 -23 51 l0 38 75 0 75 0 0 -46z
m180 8 c0 -29 -7 -45 -29 -66 -16 -16 -33 -27 -38 -24 -4 2 -25 14 -45 27 -33
20 -38 28 -38 62 l0 39 75 0 75 0 0 -38z m190 5 c0 -30 -5 -36 -38 -51 -32
-15 -43 -15 -77 -4 -36 12 -40 17 -43 51 l-3 37 80 0 81 0 0 -33z m150 -8 c0
-37 -3 -41 -37 -56 -33 -13 -40 -13 -62 0 -29 18 -46 64 -29 84 6 8 33 13 69
13 l59 0 0 -41z m198 -2 c3 -31 -1 -38 -20 -46 -13 -5 -34 -21 -47 -35 l-25
-26 -38 37 c-31 30 -38 44 -38 75 l0 39 83 -3 82 -3 3 -38z m210 11 c-2 -24
-9 -34 -23 -36 -11 -2 -35 -18 -53 -35 l-32 -31 -16 22 c-8 12 -24 22 -35 22
-16 0 -19 7 -19 45 l0 45 91 0 90 0 -3 -32z m2 -133 l0 -75 -30 0 c-20 0 -32
6 -36 18 -3 9 -10 25 -15 35 -17 31 29 96 69 97 8 0 12 -22 12 -75z m-1200 34
c6 -10 10 -36 10 -58 0 -29 5 -41 18 -44 9 -3 -17 -4 -58 -4 l-74 2 -7 34 c-8
40 5 85 24 79 6 -3 13 -25 15 -51 4 -65 22 -59 22 6 0 30 3 56 6 60 9 9 34 -4
44 -24z m110 -29 c0 -33 4 -60 10 -60 6 0 10 23 10 51 0 60 15 62 45 6 28 -51
14 -71 -51 -75 -48 -3 -50 -2 -67 33 -9 20 -17 41 -17 48 0 22 31 57 51 57 17
0 19 -7 19 -60z m425 46 c17 -13 18 -15 2 -55 -10 -23 -17 -46 -17 -51 0 -18
15 -11 25 12 16 35 35 34 35 -1 l0 -31 -73 0 c-69 0 -74 2 -85 25 -15 33 -15
68 0 83 20 20 27 14 30 -25 5 -59 28 -54 28 6 0 43 3 51 18 51 10 0 27 -6 37
-14z m107 -31 c1 -25 2 -55 2 -67 1 -14 -6 -24 -16 -26 -12 -2 -18 3 -18 17 0
11 -4 22 -9 25 -17 11 -20 61 -4 79 28 30 43 21 45 -28z m628 20 c21 -23 22
-27 10 -70 -9 -33 -18 -45 -31 -45 -17 0 -19 8 -19 70 0 39 4 70 8 70 5 0 19
-11 32 -25z m140 -39 c0 -66 -6 -76 -50 -76 -15 0 -20 10 -26 45 -3 25 -5 47
-3 49 2 1 17 12 33 24 16 12 33 22 37 22 5 0 9 -29 9 -64z m-2110 7 c13 -27
27 -56 32 -65 7 -16 3 -18 -37 -18 l-45 0 0 65 c0 80 17 86 50 18z m128 12 c4
-51 12 -75 23 -75 6 0 8 16 3 45 -7 48 -1 54 27 29 12 -11 16 -25 12 -47 -4
-29 -2 -32 22 -33 25 -2 26 0 20 35 -4 28 -2 41 9 50 25 21 46 6 46 -33 0 -19
5 -38 10 -41 6 -4 10 8 10 29 0 41 17 47 45 16 15 -17 16 -24 7 -45 -12 -25
-12 -25 -148 -25 -119 0 -139 2 -150 18 -19 25 -17 56 7 86 27 35 53 30 57 -9z
m382 22 c24 -20 40 -54 40 -87 l0 -30 -68 0 c-62 0 -70 2 -79 23 -8 17 -6 28
9 50 24 34 38 27 38 -21 0 -28 3 -33 10 -22 5 8 10 31 10 51 0 49 11 60 40 36z
m540 -12 c22 -23 23 -29 12 -57 -13 -35 -8 -48 10 -30 16 16 28 15 28 -3 0
-12 -17 -15 -90 -15 -87 0 -90 1 -90 23 0 25 26 67 41 67 5 0 9 -16 9 -35 0
-24 5 -35 15 -35 12 0 15 13 15 55 0 63 12 70 50 30z m440 -40 l0 -65 -40 0
c-30 0 -40 4 -40 16 0 11 6 14 20 9 19 -6 20 -3 14 34 -7 43 6 71 32 71 11 0
14 -16 14 -65z m200 24 c0 -34 16 -69 30 -69 6 0 8 22 4 55 -6 46 -4 55 9 55
9 0 25 -14 37 -30 17 -24 21 -39 16 -65 l-7 -35 -74 0 -73 0 -7 42 c-7 38 -5
44 20 65 32 28 45 22 45 -18z m-1766 15 c3 -9 6 -36 6 -60 0 -42 -1 -44 -31
-44 -20 0 -29 4 -27 13 2 6 10 33 17 60 14 49 24 58 35 31z m1465 2 c12 -14 4
-76 -9 -76 -12 0 -33 68 -25 80 9 14 20 13 34 -4z m176 -20 c21 -28 24 -38 15
-60 -7 -19 -17 -26 -35 -26 -24 0 -25 3 -25 53 0 46 5 67 16 67 2 0 15 -15 29
-34z m649 -11 c26 -25 46 -51 43 -58 -2 -7 -27 -13 -60 -15 l-57 -3 0 61 c0
74 10 76 74 15z m-200 -66 c-3 -5 -10 -7 -15 -3 -5 3 -7 10 -3 15 3 5 10 7 15
3 5 -3 7 -10 3 -15z"/>
<path d="M2199 8752 c-9 -2 -21 -14 -27 -27 -8 -18 -20 -25 -40 -25 -28 0 -29
-2 -41 -69 -16 -101 -15 -117 15 -138 18 -13 27 -31 31 -60 5 -37 9 -42 32
-42 14 0 45 -3 69 -7 l42 -6 0 185 0 185 -32 4 c-18 2 -40 2 -49 0z"/>
<path d="M4128 8752 l-38 -3 0 -175 0 -174 79 0 c43 0 106 3 140 6 59 7 61 8
61 35 0 18 8 34 19 41 19 11 19 13 -4 42 -13 17 -35 61 -50 99 -23 56 -31 67
-50 67 -13 0 -27 5 -30 11 -4 5 -12 8 -18 6 -17 -6 -47 11 -47 27 0 18 -16 22
-62 18z"/>
<path d="M2379 8723 c-2 -16 -2 -95 1 -178 l5 -150 119 -3 119 -3 -7 172 c-3
94 -9 175 -12 180 -3 5 -54 9 -113 9 l-109 0 -3 -27z"/>
<path d="M3740 8731 c-6 -11 -10 -87 -10 -175 l0 -156 120 0 120 0 0 175 0
175 -110 0 c-98 0 -110 -2 -120 -19z"/>
<path d="M2720 8668 c0 -40 3 -117 7 -170 l6 -98 82 0 82 0 7 92 c3 50 6 124
6 163 l0 72 -52 7 c-29 3 -72 6 -95 6 l-43 0 0 -72z"/>
<path d="M3010 8570 l0 -170 123 0 122 0 -2 166 -2 166 -120 4 -121 3 0 -169z"/>
<path d="M3357 8734 c-9 -9 -9 -296 -1 -318 5 -14 28 -16 151 -16 l145 0 -7
143 c-4 78 -8 153 -10 167 l-2 25 -135 3 c-74 1 -137 -1 -141 -4z"/>
<path d="M4261 8310 c-19 -5 -504 -10 -1078 -12 l-1044 -3 -8 -35 c-18 -68
-30 -1134 -23 -1954 1 -127 -2 -232 -6 -235 -5 -3 -12 -105 -15 -227 l-7 -221
122 -7 c137 -8 148 -4 148 61 0 30 -3 33 -29 33 -34 0 -45 12 -36 40 4 13 15
20 31 20 13 0 24 5 24 11 0 6 9 9 20 6 20 -5 20 0 21 636 1 353 4 704 8 781 5
107 3 140 -7 143 -15 6 -5 164 11 175 6 4 4 13 -7 23 -13 14 -17 32 -15 78 2
54 0 62 -19 70 -26 12 -38 43 -23 61 8 10 6 18 -9 31 -23 20 -27 67 -7 83 7 6
36 14 66 18 41 5 55 12 63 29 10 21 140 115 160 115 5 0 16 7 24 15 21 21 162
21 190 0 10 -8 27 -15 36 -15 59 -1 208 -93 208 -128 0 -6 19 -12 41 -14 54
-4 71 -28 44 -58 -16 -18 -17 -26 -8 -50 14 -37 2 -53 -50 -70 l-37 -12 0
-121 c1 -233 -19 -953 -30 -1063 -11 -120 -14 -623 -4 -697 6 -44 8 -46 43
-49 31 -3 36 -6 36 -28 0 -22 -5 -25 -38 -28 -35 -3 -38 -6 -33 -25 4 -12 9
-34 12 -49 l7 -28 153 0 c171 0 162 -4 148 69 -5 26 -10 30 -29 25 -28 -7 -67
31 -63 61 2 15 15 22 53 30 l50 10 5 595 c3 327 5 743 4 924 0 327 0 330 -22
344 -26 17 -28 40 -7 68 21 27 18 43 -8 55 -34 15 -50 45 -37 69 9 17 21 20
74 20 l63 0 39 52 c53 70 94 89 202 95 120 7 191 -8 257 -54 30 -21 57 -48 60
-60 5 -21 11 -23 80 -23 64 0 76 -3 85 -20 13 -24 6 -38 -25 -50 -31 -12 -40
-58 -11 -62 15 -2 21 -10 21 -28 0 -19 -9 -29 -37 -42 l-38 -18 -1 -78 c-1
-42 0 -81 1 -87 1 -5 2 -17 1 -25 0 -8 -2 -391 -4 -851 l-5 -836 30 -17 c41
-25 36 -60 -11 -64 l-34 -3 6 -51 c4 -28 8 -52 9 -54 2 -1 76 0 166 3 l162 6
0 228 c0 188 -2 229 -14 229 -16 0 -28 48 -14 56 5 4 5 10 0 17 -8 10 -9 55
-3 99 1 3 9 9 19 11 15 4 15 5 0 6 -10 1 -16 9 -15 21 1 11 4 20 7 20 3 0 7
71 8 157 2 86 5 160 7 164 3 3 4 245 4 535 -1 677 0 637 -7 649 -10 17 -11 35
-1 35 30 0 -8 135 -40 144 -12 3 -11 6 7 11 25 8 27 16 10 33 -10 10 -10 14 0
21 10 6 10 14 2 35 -14 37 -13 83 3 89 9 4 9 6 -1 6 -7 1 -10 6 -6 13 5 7 2 9
-8 5 -9 -3 -20 -1 -26 5 -8 8 -5 15 11 23 13 6 22 19 21 31 -1 11 5 21 12 21
8 0 14 -6 14 -13 0 -7 5 -16 10 -19 6 -4 10 7 10 25 0 29 -2 32 -25 26 -18 -5
-25 -2 -25 9 0 16 -24 18 -79 5z m-16 -34 c12 -12 12 -15 -1 -20 -12 -5 -14
-15 -9 -46 4 -23 3 -40 -2 -40 -17 0 -23 13 -12 27 9 10 8 13 -5 13 -13 0 -16
5 -11 23 4 12 9 30 11 40 6 21 11 21 29 3z"/>
<path d="M2670 7940 c-8 -6 -32 -15 -52 -20 -76 -21 -38 -30 127 -30 107 0
165 4 165 10 0 6 -21 20 -46 30 -50 22 -167 27 -194 10z"/>
<path d="M3628 7928 c-27 -11 -48 -24 -48 -29 0 -5 59 -9 130 -9 81 0 130 4
130 10 0 6 -15 19 -32 30 -43 26 -118 25 -180 -2z"/>
<path d="M3580 7528 c-14 -8 -40 -38 -58 -68 l-32 -55 2 -380 3 -380 194 -3
193 -2 -5 347 c-3 251 -8 358 -17 383 -7 19 -19 51 -25 70 -18 52 -86 91 -167
97 -41 2 -72 -1 -88 -9z"/>
<path d="M2588 7484 c-16 -8 -37 -32 -48 -54 -19 -37 -20 -59 -20 -400 l0
-360 175 0 176 0 -4 253 c-7 392 -34 514 -127 562 -37 19 -117 19 -152 -1z"/>
<path d="M5358 7476 c-38 -23 -70 -63 -101 -125 -15 -30 -17 -72 -17 -326 l0
-292 212 -7 c119 -4 215 -3 220 2 5 5 7 98 5 208 -5 266 -22 352 -89 460 -20
33 -48 65 -60 71 -87 40 -117 42 -170 9z"/>
<path d="M1033 7483 c-29 -6 -99 -86 -106 -121 -17 -84 -25 -113 -36 -126 -8
-9 -11 -85 -9 -262 l3 -249 40 2 c22 0 115 4 208 9 l167 7 -1 111 c-3 360 -38
547 -107 582 -12 6 -30 18 -40 27 -19 17 -83 28 -119 20z"/>
<path d="M241 7453 c-14 -16 -35 -53 -45 -83 -17 -51 -18 -79 -11 -384 l7
-329 102 7 c55 4 105 11 110 16 14 14 -16 664 -34 729 -8 29 -18 43 -44 55
-46 22 -53 21 -85 -11z"/>
<path d="M1786 7449 c-29 -23 -56 -73 -56 -104 0 -11 -7 -30 -15 -41 -12 -16
-14 -69 -15 -301 l0 -281 83 -6 c45 -3 99 -4 120 -3 l37 1 0 191 c0 246 -19
394 -63 497 -25 59 -56 75 -91 47z"/>
<path d="M4588 7458 c-45 -19 -69 -91 -84 -253 -15 -159 -19 -561 -5 -569 5
-3 28 -2 52 4 56 12 164 36 209 47 l35 9 -1 179 c-1 99 -6 241 -12 315 -6 74
-11 151 -11 171 -1 61 -34 86 -136 104 -11 2 -32 -1 -47 -7z"/>
<path d="M6169 7437 c-9 -7 -26 -28 -38 -47 -19 -31 -21 -50 -21 -176 0 -77 3
-216 7 -307 l6 -166 26 -10 c14 -5 68 -12 119 -14 l92 -4 0 340 0 341 -27 28
c-24 25 -34 28 -87 28 -34 0 -68 -6 -77 -13z"/>
<path d="M1100 6600 c-85 -4 -170 -8 -187 -9 l-33 -1 0 -336 0 -337 88 8 c48
4 126 7 175 5 48 -1 105 1 127 5 l40 7 0 167 c0 92 -3 243 -7 334 -6 161 -7
167 -27 165 -12 -1 -91 -5 -176 -8z"/>
<path d="M1696 6547 c-13 -108 -19 -357 -11 -489 l7 -138 112 0 c61 0 117 4
124 8 9 7 12 78 10 323 l-3 314 -35 3 c-19 1 -51 6 -70 12 -19 5 -56 11 -81
14 l-46 5 -7 -52z"/>
<path d="M5245 6263 c4 -186 10 -341 14 -346 4 -4 104 -6 222 -5 l214 3 3 120
c2 66 0 220 -3 343 l-7 222 -225 0 -225 0 7 -337z"/>
<path d="M6126 6591 c-7 -11 -7 -635 0 -662 4 -13 17 -15 82 -12 110 6 116 8
129 45 7 19 14 152 18 319 6 232 4 287 -7 296 -18 15 -214 27 -222 14z"/>
<path d="M4695 6559 c-97 -19 -166 -37 -177 -47 -10 -8 -11 -52 -6 -194 9
-253 17 -410 20 -413 2 -1 62 1 133 4 l130 6 3 328 2 327 -32 -1 c-18 -1 -51
-5 -73 -10z"/>
<path d="M3505 6552 c-3 -3 -5 -178 -5 -389 l0 -383 182 2 182 3 7 25 c4 14 7
186 8 383 1 279 -2 357 -11 358 -47 5 -358 5 -363 1z"/>
<path d="M320 6537 c-47 -5 -93 -9 -103 -10 -10 -1 -20 -12 -24 -25 -6 -26 3
-417 13 -535 l7 -78 111 3 111 3 -1 130 c0 174 -16 515 -23 518 -3 2 -44 -1
-91 -6z"/>
<path d="M2521 6303 c1 -137 4 -313 8 -393 l6 -145 80 2 c44 1 119 2 168 3
l87 0 0 390 0 390 -175 0 -175 0 1 -247z"/>
<path d="M2530 5671 c0 -71 0 -71 120 -71 59 0 135 3 169 6 l61 7 0 48 0 49
-175 0 -175 0 0 -39z"/>
<path d="M3512 5653 l3 -58 140 2 c77 1 164 2 193 2 l52 1 0 55 0 55 -195 0
-196 0 3 -57z"/>
<path d="M5220 5409 c-25 -4 -64 -8 -88 -8 l-43 -1 3 -127 3 -128 110 3 c61 1
251 4 423 8 l313 5 -3 127 -3 127 -335 1 c-184 0 -355 -3 -380 -7z m630 -114
c0 -36 -1 -68 -2 -71 -2 -4 -124 -6 -273 -5 -182 1 -281 -2 -303 -10 -47 -16
-62 0 -62 66 0 31 5 57 13 63 13 11 99 15 470 20 l157 2 0 -65z"/>
<path d="M820 5400 c-14 -4 -51 -8 -82 -9 -31 -1 -59 -4 -61 -9 -3 -4 -3 -55
0 -114 l6 -106 156 -7 c234 -10 386 -10 481 -1 l85 9 0 123 0 124 -280 -1
c-154 -1 -291 -5 -305 -9z m498 -117 c-3 -47 -4 -48 -43 -55 -22 -4 -149 -7
-283 -7 l-243 -1 3 48 3 47 215 5 c118 3 246 7 283 8 l68 2 -3 -47z"/>
<path d="M4606 5399 c-83 -5 -154 -13 -160 -19 -11 -11 10 -219 23 -233 4 -4
59 -3 122 3 63 5 154 10 202 10 127 0 125 -2 122 122 -2 57 -4 109 -4 116 -1
14 -68 14 -305 1z m192 -115 c4 -61 -8 -66 -151 -68 l-122 -1 -3 37 c-2 20 2
46 8 58 10 19 18 20 138 18 l127 -3 3 -41z"/>
<path d="M6060 5407 c-3 -3 -3 -61 0 -129 l5 -123 105 -6 c58 -4 148 -12 200
-18 52 -6 106 -12 120 -14 l25 -2 3 115 c4 170 17 156 -145 163 -76 4 -176 10
-223 13 -47 4 -87 4 -90 1z m295 -87 c28 -6 66 -11 85 -13 34 -2 35 -4 38 -45
2 -29 -1 -44 -11 -48 -8 -3 -52 1 -98 7 -46 7 -110 13 -142 14 -56 1 -58 2
-77 41 -11 21 -18 44 -16 51 5 13 138 9 221 -7z"/>
<path d="M366 5393 c-4 -4 -81 -10 -171 -13 -91 -3 -169 -10 -174 -15 -9 -10
1 -195 12 -212 4 -6 111 -11 256 -12 l249 -2 7 115 c9 145 9 146 -95 146 -42
0 -80 -3 -84 -7z m82 -125 l-3 -43 -165 0 -165 0 -3 43 -3 42 171 0 171 0 -3
-42z"/>
<path d="M1895 5394 c-11 -2 -64 -6 -117 -9 l-98 -7 0 -103 0 -103 169 -7 c93
-4 200 -4 238 -1 71 7 81 4 99 -29 11 -20 22 -20 1115 -20 l1104 0 -2 105 c-2
58 -5 114 -7 125 -5 20 -13 20 -1133 19 -621 0 -1133 -3 -1139 -7 -6 -3 -16 5
-22 18 -11 24 -15 25 -99 24 -49 -1 -97 -3 -108 -5z m55 -65 c71 0 132 -4 134
-8 2 -3 7 -27 11 -53 l7 -48 -148 0 c-168 0 -187 7 -178 64 9 50 13 58 29 52
8 -3 73 -6 145 -7z m2360 -63 c0 -7 3 -27 6 -44 l6 -31 -443 -5 c-244 -3 -702
-9 -1016 -12 l-573 -6 -11 26 c-9 19 -9 32 1 56 l12 30 1009 0 c849 0 1009 -2
1009 -14z"/>
<path d="M5923 4956 c-4 -8 -19 -16 -33 -19 -14 -2 117 -4 290 -4 293 0 302 1
135 7 -99 5 -207 13 -239 19 -82 15 -143 14 -153 -3z"/>
<path d="M3660 4879 c0 -52 24 -48 28 4 2 28 -1 37 -12 37 -12 0 -16 -11 -16
-41z"/>
<path d="M3710 4910 c0 -5 5 -10 10 -10 6 0 10 5 10 10 0 6 -4 10 -10 10 -5 0
-10 -4 -10 -10z"/>
<path d="M4010 4899 c0 -33 22 -109 31 -109 11 0 12 24 2 34 -4 4 -8 15 -8 24
-1 9 -2 29 -3 45 -2 31 -22 37 -22 6z"/>
<path d="M4140 4910 c0 -5 4 -10 9 -10 6 0 13 5 16 10 3 6 -1 10 -9 10 -9 0
-16 -4 -16 -10z"/>
<path d="M4520 4898 c0 -33 22 -78 39 -78 9 0 11 6 6 18 -4 9 -10 30 -14 46
-8 37 -31 47 -31 14z"/>
<path d="M5898 4886 c7 -56 23 -59 238 -47 207 12 349 28 377 42 9 6 17 16 17
24 0 13 -45 15 -318 15 l-318 0 4 -34z"/>
<path d="M3210 4898 c0 -9 5 -20 11 -23 17 -11 20 0 4 21 -13 17 -14 17 -15 2z"/>
<path d="M4625 4890 c-8 -13 -1 -24 14 -19 6 3 7 10 2 18 -6 10 -10 10 -16 1z"/>
<path d="M3005 4860 c3 -5 8 -10 11 -10 2 0 4 5 4 10 0 6 -5 10 -11 10 -5 0
-7 -4 -4 -10z"/>
<path d="M4384 4859 c-3 -6 -1 -16 5 -22 8 -8 11 -5 11 11 0 24 -5 28 -16 11z"/>
<path d="M4830 4866 c0 -2 7 -9 15 -16 12 -10 15 -10 15 4 0 9 -7 16 -15 16
-8 0 -15 -2 -15 -4z"/>
<path d="M5485 4860 c3 -5 8 -10 11 -10 2 0 4 5 4 10 0 6 -5 10 -11 10 -5 0
-7 -4 -4 -10z"/>
<path d="M3350 4844 c0 -8 5 -12 10 -9 6 4 8 11 5 16 -9 14 -15 11 -15 -7z"/>
<path d="M4160 4840 c0 -11 5 -20 10 -20 6 0 10 9 10 20 0 11 -4 20 -10 20 -5
0 -10 -9 -10 -20z"/>
<path d="M3225 4830 c3 -5 8 -10 11 -10 2 0 4 5 4 10 0 6 -5 10 -11 10 -5 0
-7 -4 -4 -10z"/>
<path d="M3756 4808 c8 -40 26 -77 31 -62 6 19 -12 87 -25 92 -8 2 -10 -6 -6
-30z"/>
<path d="M7092 4813 c-7 -3 -16 -13 -22 -22 -8 -15 -6 -17 16 -13 19 3 23 1
18 -11 -7 -18 9 -29 30 -21 11 4 13 11 7 22 -18 33 -36 50 -49 45z"/>
<path d="M3666 4778 c-3 -13 -1 -27 4 -32 7 -7 10 1 10 22 0 37 -5 41 -14 10z"/>
<path d="M4180 4776 c0 -8 7 -16 15 -20 13 -4 14 -2 5 14 -13 23 -20 26 -20 6z"/>
<path d="M3035 4770 c3 -5 8 -10 11 -10 2 0 4 5 4 10 0 6 -5 10 -11 10 -5 0
-7 -4 -4 -10z"/>
<path d="M4032 4750 c0 -14 2 -19 5 -12 2 6 2 18 0 25 -3 6 -5 1 -5 -13z"/>
<path d="M4197 4733 c-11 -10 -8 -43 3 -43 6 0 10 -8 10 -17 1 -16 1 -17 10
-2 11 18 -11 74 -23 62z"/>
<path d="M4432 4719 c2 -7 10 -15 17 -17 8 -3 12 1 9 9 -2 7 -10 15 -17 17 -8
3 -12 -1 -9 -9z"/>
<path d="M4560 4724 c0 -7 7 -27 15 -45 13 -32 14 -32 15 -8 0 14 -7 34 -15
45 -8 10 -15 14 -15 8z"/>
<path d="M4895 4720 c3 -5 8 -10 11 -10 2 0 4 5 4 10 0 6 -5 10 -11 10 -5 0
-7 -4 -4 -10z"/>
<path d="M3685 4710 c-3 -5 -1 -10 4 -10 6 0 11 5 11 10 0 6 -2 10 -4 10 -3 0
-8 -4 -11 -10z"/>
<path d="M6980 4675 c-25 -13 -40 -24 -33 -25 12 0 83 39 83 46 0 6 0 6 -50
-21z"/>
<path d="M4450 4680 c0 -5 5 -10 11 -10 5 0 7 5 4 10 -3 6 -8 10 -11 10 -2 0
-4 -4 -4 -10z"/>
<path d="M6838 4598 c-48 -27 -96 -50 -107 -51 -11 0 -19 -5 -18 -11 1 -5 -16
-14 -38 -19 -22 -6 -46 -16 -53 -24 -20 -19 -72 -45 -73 -36 -1 5 -1 12 0 16
1 5 -2 7 -6 5 -4 -2 -25 -12 -45 -21 -26 -12 -38 -24 -38 -37 0 -12 -7 -20
-16 -20 -14 0 -14 3 -4 16 12 13 10 14 -13 3 -15 -7 -27 -16 -27 -21 0 -5 6
-6 13 -3 6 4 1 -3 -13 -14 -14 -11 -51 -34 -82 -51 -32 -17 -58 -35 -58 -41 0
-5 -8 -9 -18 -9 -11 0 -29 -9 -42 -20 -13 -11 -27 -20 -32 -20 -5 0 -34 -12
-64 -27 -37 -18 -54 -32 -51 -42 6 -31 60 -8 242 100 28 16 65 37 83 46 17 9
32 20 32 25 0 4 7 8 16 8 9 0 39 14 66 30 26 17 51 30 53 30 3 0 24 12 46 26
23 14 75 44 117 66 110 58 222 128 222 139 0 5 -1 9 -2 8 -2 -1 -42 -23 -90
-51z"/>
<path d="M2106 4433 c-4 -4 -46 -10 -94 -13 l-87 -5 -3 -1257 -2 -1257 37 -7
c36 -7 392 2 400 9 2 3 -1 481 -7 1063 -6 583 -10 1151 -8 1264 l3 205 -116 3
c-63 1 -118 -1 -123 -5z"/>
<path d="M140 4401 c-6 -12 -10 -130 -11 -308 0 -270 -7 -602 -30 -1418 -5
-187 -11 -450 -15 -584 l-6 -244 219 7 c120 3 302 9 405 12 l186 7 6 516 c3
284 9 857 12 1274 l6 757 -381 0 c-366 0 -381 -1 -391 -19z"/>
<path d="M6800 4390 c0 -5 9 -10 21 -10 11 0 17 5 14 10 -3 6 -13 10 -21 10
-8 0 -14 -4 -14 -10z"/>
<path d="M6290 4348 c-269 -142 -256 -135 -248 -144 7 -6 179 85 190 100 4 6
8 7 8 3 0 -5 16 1 35 13 19 12 48 28 65 36 16 9 30 20 30 25 0 5 -1 9 -2 8 -2
-1 -37 -19 -78 -41z"/>
<path d="M6748 4383 c-18 -5 -23 -15 -12 -26 7 -7 44 14 44 25 0 8 -4 9 -32 1z"/>
<path d="M6679 4337 c-14 -12 -35 -38 -47 -58 -24 -40 -20 -72 13 -99 20 -17
85 -14 100 3 6 7 15 12 20 12 6 0 27 11 47 25 44 30 75 77 60 92 -7 7 -12 3
-17 -11 -10 -32 -43 -60 -101 -87 -53 -25 -108 -25 -118 1 -6 16 4 55 13 55 4
0 22 18 39 39 35 44 28 64 -9 28z"/>
<path d="M2504 3966 c-3 -9 -3 -93 0 -188 4 -95 11 -405 16 -688 5 -283 12
-663 16 -843 l6 -328 52 6 c28 4 269 10 535 14 457 7 484 8 497 26 12 15 14
121 14 592 l0 573 24 0 c14 0 33 11 45 25 l20 26 45 -33 45 -33 2 -135 c4
-285 13 -447 39 -710 11 -118 13 -303 3 -313 -3 -4 -8 -100 -10 -215 l-4 -207
-32 -11 c-21 -7 -241 -13 -646 -17 -337 -3 -616 -8 -619 -11 -2 -3 6 -14 19
-25 13 -11 21 -22 17 -26 -3 -4 -36 -7 -73 -7 -43 0 -62 -4 -54 -9 11 -7 11
-9 -3 -9 -9 0 -20 5 -23 11 -4 6 -14 7 -24 4 -9 -4 -39 -7 -68 -6 -40 2 -54
-2 -63 -16 -11 -17 -11 -17 -6 0 6 18 0 19 -82 15 -49 -3 -94 -8 -100 -12 -7
-4 -12 -3 -12 2 0 5 -14 9 -30 8 -21 0 -30 -5 -28 -16 4 -16 7 -17 91 -19 l57
-1 -21 -21 c-15 -15 -24 -18 -32 -10 -15 15 -54 14 -60 -1 -4 -10 -6 -10 -6
-1 -1 9 -10 8 -35 -2 -19 -8 -42 -12 -50 -9 -19 7 -22 -32 -5 -56 9 -13 10
-13 6 2 -6 16 15 43 25 33 3 -3 3 -17 0 -30 -3 -18 -11 -25 -28 -25 -13 0 -24
-4 -24 -9 0 -4 11 -6 25 -3 32 6 78 -6 70 -18 -3 -6 -1 -10 4 -10 12 0 13 5
14 60 0 35 0 35 4 3 4 -33 33 -49 82 -44 19 2 22 -1 17 -15 -5 -14 -4 -15 9
-4 12 10 15 10 15 -4 0 -9 7 -16 15 -16 13 0 15 8 11 38 -3 20 -3 29 0 20 3
-10 13 -18 22 -19 11 0 12 -2 5 -6 -7 -2 -13 -9 -13 -15 0 -6 7 -8 15 -4 9 3
15 0 15 -9 0 -8 7 -15 15 -15 8 0 15 5 15 10 0 15 50 12 50 -2 1 -7 6 0 13 16
l13 29 12 -29 c10 -20 16 -24 21 -15 7 10 12 10 29 0 16 -10 23 -10 36 0 8 7
24 10 36 6 16 -5 20 -2 20 14 0 12 -9 23 -22 27 l-23 8 25 6 c17 4 28 2 34 -8
7 -12 10 -12 17 -1 8 13 13 -13 12 -58 0 -6 6 -14 13 -17 8 -3 14 0 14 7 0 7
5 4 11 -5 12 -21 29 -24 29 -5 0 7 11 14 25 15 29 2 32 -5 8 -25 -17 -14 -17
-14 0 -9 9 3 17 2 17 -2 0 -4 14 -8 30 -7 17 0 30 4 30 8 0 5 5 5 11 1 10 -6
78 -6 169 -1 35 3 48 -13 55 -69 8 -68 8 -66 0 -186 l-8 -108 29 0 29 0 0 174
c0 104 4 179 10 185 12 11 103 24 159 22 26 -1 43 5 52 17 8 9 14 12 14 5 0
-8 12 -10 33 -8 17 3 56 5 85 6 31 1 52 6 52 13 0 7 3 7 8 -1 4 -6 21 -10 37
-8 17 2 98 4 180 6 83 1 153 4 157 6 3 2 80 5 170 8 89 3 177 8 193 10 17 3
109 7 205 9 115 3 176 8 178 16 3 8 8 8 17 0 19 -15 66 -16 94 0 15 7 21 8 17
1 -5 -7 3 -11 19 -11 15 0 24 4 20 10 -4 7 2 7 19 1 18 -8 26 -6 30 5 6 15 36
20 36 5 0 -6 10 -8 22 -6 12 3 27 0 35 -6 10 -9 13 -8 14 2 0 8 5 -1 10 -19 5
-18 14 -30 19 -27 6 4 10 -3 10 -14 0 -11 9 -22 20 -26 11 -3 20 -13 20 -21 0
-8 4 -13 9 -10 5 4 7 -3 4 -14 -4 -14 0 -20 11 -20 9 0 16 -7 16 -15 0 -8 -4
-15 -9 -15 -5 0 1 -20 12 -45 15 -31 23 -41 30 -32 5 8 6 5 3 -8 -8 -29 6 -45
32 -38 18 4 20 8 10 20 -7 8 -13 20 -14 27 -1 6 -25 58 -53 115 -52 105 -62
142 -21 77 12 -20 26 -36 31 -36 6 0 8 -4 5 -9 -3 -5 7 -23 23 -40 16 -17 27
-31 25 -31 -2 0 8 -18 22 -40 15 -22 30 -38 34 -35 4 3 11 -2 14 -11 4 -9 2
-13 -5 -8 -6 4 6 -20 27 -52 20 -33 46 -74 57 -91 20 -35 37 -43 37 -17 0 8
-4 12 -10 9 -6 -4 -7 1 -3 11 3 10 0 22 -8 28 -8 6 -21 25 -30 41 -9 17 -22
29 -29 27 -8 -2 -10 3 -6 13 3 10 -31 70 -95 166 -74 110 -98 154 -90 162 8 8
11 7 11 -2 0 -8 7 -11 20 -8 11 3 20 2 20 -3 0 -4 12 -5 28 -3 15 2 70 5 122
6 81 3 95 6 92 19 -2 12 3 15 20 11 13 -3 28 -10 35 -15 14 -11 36 -1 28 13
-3 5 1 6 9 3 9 -3 16 -11 17 -18 0 -6 4 -2 9 9 7 17 9 17 9 3 1 -22 21 -24 21
-3 0 19 16 20 23 0 7 -17 46 -12 59 7 5 9 8 10 8 1 0 -7 14 -11 35 -10 19 1
35 7 35 12 0 6 8 11 18 12 9 0 67 4 127 7 61 4 129 7 153 8 23 0 42 4 42 8 0
4 16 6 35 3 19 -2 35 0 35 4 0 9 -4 8 312 16 119 3 222 8 227 12 6 3 11 1 11
-5 0 -7 7 -5 16 4 8 9 31 16 50 16 19 0 34 5 34 10 0 6 11 8 25 4 15 -4 25 -2
25 5 0 15 47 14 53 -1 4 -10 6 -10 6 0 1 6 9 12 19 11 10 0 12 -3 5 -6 -18 -7
-16 -33 2 -33 8 0 15 5 15 10 0 12 57 14 64 2 7 -12 69 -3 81 12 6 6 19 12 30
14 33 5 45 11 45 22 0 5 -5 10 -11 10 -5 0 -7 -6 -3 -12 6 -10 4 -10 -7 -2 -8
7 -30 15 -49 19 -47 10 -133 67 -117 77 7 4 8 8 2 9 -5 1 -14 3 -20 4 -5 2
-17 3 -25 4 -13 1 -13 2 0 11 11 7 12 15 4 37 -5 15 -14 28 -19 29 -6 0 -17 3
-25 6 -47 18 -139 47 -164 53 -16 3 -48 19 -71 35 -23 16 -77 47 -119 69 l-77
41 -214 0 -215 0 0 -109 c0 -170 23 -154 -251 -174 -454 -32 -674 -39 -808
-23 -47 6 -186 4 -382 -4 -230 -10 -315 -10 -334 -2 -15 7 -27 8 -30 2 -8 -13
-171 -13 -196 1 -19 10 -19 10 1 40 20 27 21 41 20 238 0 161 2 210 12 214 10
4 10 6 1 6 -7 1 -13 13 -13 29 0 15 -4 41 -9 59 -12 43 1 53 71 53 l58 0 1
293 c1 404 8 680 19 691 5 5 19 2 34 -8 14 -9 34 -16 44 -16 18 0 19 -17 18
-482 l-1 -483 80 1 c44 1 96 4 115 6 l35 5 12 79 c14 98 16 170 4 193 -7 13
-21 374 -24 628 -1 42 9 52 28 27 13 -17 14 -17 15 -1 0 9 5 17 12 17 6 0 19
7 28 15 16 14 20 14 47 -1 36 -21 83 -12 90 16 6 24 16 25 33 5 14 -17 62 -20
91 -4 19 10 20 8 12 -63 -12 -110 -8 -787 6 -918 6 -63 14 -142 17 -176 l6
-60 176 3 c301 5 674 24 698 35 l24 11 2 246 c2 135 1 392 -1 569 -4 345 -5
341 43 342 11 0 27 7 37 16 17 15 20 15 49 -10 18 -14 36 -26 41 -26 15 0 53
21 61 33 4 8 15 7 33 -1 39 -18 72 -15 96 9 l21 21 28 -27 c25 -24 34 -26 67
-20 21 4 60 6 86 6 29 -1 61 6 78 16 26 16 29 16 47 0 25 -23 57 -21 79 2 13
14 23 17 33 11 25 -16 59 -11 70 11 28 51 82 49 -1077 48 -593 0 -1238 3
-1433 6 -454 7 -986 6 -1016 -1 -19 -5 -26 -1 -35 22 -24 59 -69 151 -99 199
-16 28 -33 57 -37 65 -4 8 -28 45 -55 83 -26 37 -48 70 -48 73 0 4 -29 51 -65
106 -36 55 -77 122 -92 149 -29 56 -41 67 -49 45z m538 -1020 c15 -11 16 -18
8 -43 -9 -25 -15 -29 -36 -25 -13 2 -27 8 -30 13 -8 14 6 50 17 44 5 -4 9 1 9
9 0 19 9 20 32 2z m92 -54 c4 -10 -7 -50 -22 -88 -22 -54 -34 -70 -51 -72 -13
-2 -21 0 -19 5 52 106 69 155 51 152 -20 -3 -34 2 -28 11 11 18 63 12 69 -8z
m72 -16 c12 -12 9 -25 -23 -91 -36 -77 -50 -92 -77 -82 -12 5 -9 19 14 76 48
118 56 127 86 97z m-242 -11 c15 -8 36 -15 45 -15 10 0 26 -6 36 -14 16 -12
17 -16 6 -30 -16 -19 -81 -22 -99 -4 -9 9 -12 6 -12 -15 0 -22 9 -33 45 -55
51 -31 75 -72 75 -131 0 -30 -4 -41 -15 -41 -19 0 -19 -9 0 -34 8 -11 15 -14
15 -8 0 7 12 12 26 12 23 0 24 1 10 16 -11 11 -16 35 -16 79 0 41 -4 65 -12
68 -8 3 -7 6 4 6 9 1 19 -3 23 -9 5 -9 14 -8 53 7 9 3 25 5 35 4 10 -1 29 5
42 13 34 23 36 21 19 -26 -16 -45 -65 -128 -76 -128 -4 0 -18 -19 -32 -42 -14
-24 -26 -38 -26 -33 0 6 -6 3 -13 -6 -17 -22 -166 -31 -153 -10 3 5 -1 11 -9
15 -13 5 -13 10 -1 43 29 77 28 87 -9 123 -19 19 -35 39 -35 46 0 7 -4 14 -10
16 -13 4 30 168 44 168 6 0 24 -7 40 -15z m298 -43 c25 -25 -43 -125 -72 -107
-14 9 -13 20 11 75 20 48 37 56 61 32z m3495 -1218 c-3 -3 -12 -4 -19 -1 -8 3
-5 6 6 6 11 1 17 -2 13 -5z m20 -26 c-3 -8 -6 -5 -6 6 -1 11 2 17 5 13 3 -3 4
-12 1 -19z m-17 -4 c0 -8 -4 -12 -10 -9 -5 3 -10 10 -10 16 0 5 5 9 10 9 6 0
10 -7 10 -16z m65 -114 c3 -5 1 -10 -4 -10 -6 0 -11 5 -11 10 0 6 2 10 4 10 3
0 8 -4 11 -10z m-4265 -54 c0 -8 -4 -18 -10 -21 -5 -3 -10 3 -10 14 0 12 5 21
10 21 6 0 10 -6 10 -14z m-350 -38 c0 -18 -2 -20 -9 -8 -6 8 -7 18 -5 22 9 14
14 9 14 -14z m224 6 c3 -8 2 -12 -4 -9 -6 3 -10 10 -10 16 0 14 7 11 14 -7z
m86 -29 c0 -25 19 -37 21 -12 0 6 5 2 11 -11 14 -29 4 -39 -18 -18 -15 15 -17
15 -28 1 -9 -13 -11 -9 -11 25 0 26 4 40 12 40 7 0 13 -11 13 -25z m-486 -60
c-7 -18 -8 -18 -15 1 -4 10 -8 26 -8 34 -1 12 1 12 14 -1 10 -10 13 -22 9 -34z
m2593 -21 c-3 -3 -12 -4 -19 -1 -8 3 -5 6 6 6 11 1 17 -2 13 -5z m-2322 -24
c-3 -5 -10 -10 -16 -10 -5 0 -9 5 -9 10 0 6 7 10 16 10 8 0 12 -4 9 -10z m426
-53 c-8 -8 -11 -7 -11 4 0 20 13 34 18 19 3 -7 -1 -17 -7 -23z m-21 7 c0 -8
-5 -12 -10 -9 -6 4 -8 11 -5 16 9 14 15 11 15 -7z m80 6 c0 -5 -2 -10 -4 -10
-3 0 -8 5 -11 10 -3 6 -1 10 4 10 6 0 11 -4 11 -10z m187 -372 c-3 -7 -5 -2
-5 12 0 14 2 19 5 13 2 -7 2 -19 0 -25z"/>
<path d="M1485 3711 c-129 -9 -117 28 -119 -382 -1 -332 7 -695 20 -907 l6
-93 120 3 c102 3 123 6 132 20 8 13 8 23 0 35 -8 13 -11 186 -11 558 0 376 -4
567 -12 625 -7 47 -15 100 -17 118 -4 23 -10 31 -22 30 -9 -1 -53 -4 -97 -7z"/>
<path d="M1018 3698 c-21 -17 -29 -199 -34 -862 l-4 -508 22 4 c13 3 28 7 33
8 18 5 95 -12 95 -22 0 -5 10 -8 23 -6 22 3 22 5 23 173 1 94 7 215 14 270 12
104 13 486 1 785 l-6 165 -75 3 c-50 2 -81 -2 -92 -10z"/>
<path d="M1744 3355 c0 -121 2 -169 3 -107 2 62 2 161 0 220 -1 59 -3 8 -3
-113z"/>
<path d="M1287 3428 c-3 -23 -2 -49 3 -58 6 -10 9 3 10 43 0 67 -5 74 -13 15z"/>
<path d="M1292 3290 c0 -19 2 -27 5 -17 2 9 2 25 0 35 -3 9 -5 1 -5 -18z"/>
<path d="M1290 3218 c0 -18 -1 -74 -2 -125 -1 -51 1 -95 5 -99 4 -4 7 52 7
124 0 73 -2 132 -5 132 -3 0 -5 -15 -5 -32z"/>
<path d="M4080 3079 c0 -11 5 -17 10 -14 6 3 10 13 10 21 0 8 -4 14 -10 14 -5
0 -10 -9 -10 -21z"/>
<path d="M1280 2225 c0 -450 3 -685 10 -685 7 0 10 235 10 685 0 450 -3 685
-10 685 -7 0 -10 -235 -10 -685z"/>
<path d="M1755 2140 c0 -322 1 -453 2 -292 2 160 2 424 0 585 -1 160 -2 29 -2
-293z"/>
<path d="M4094 2085 c0 -165 2 -234 3 -153 2 81 2 216 0 300 -1 84 -3 18 -3
-147z"/>
<path d="M1602 2173 l48 -4 3 -217 2 -217 3 223 2 222 -52 -2 -53 -2 47 -3z"/>
<path d="M1410 1946 c0 -139 4 -207 11 -212 8 -5 10 52 8 205 -2 116 -7 211
-11 211 -5 0 -8 -92 -8 -204z"/>
<path d="M4393 1848 c1 -120 5 -218 9 -218 10 0 8 366 -2 405 -5 17 -8 -62 -7
-187z"/>
<path d="M4188 2043 c12 -2 32 -2 45 0 12 2 2 4 -23 4 -25 0 -35 -2 -22 -4z"/>
<path d="M3993 2029 c15 -9 17 -30 17 -204 0 -131 -3 -195 -11 -195 -5 0 -7
-4 -4 -10 20 -32 25 7 25 199 0 181 -2 210 -16 215 -24 9 -31 7 -11 -5z"/>
<path d="M4143 1950 c0 -41 2 -58 4 -37 2 20 2 54 0 75 -2 20 -4 3 -4 -38z"/>
<path d="M7197 1806 c102 -132 187 -236 194 -236 5 0 9 -5 9 -10 0 -22 185
-269 192 -257 5 7 8 1 8 -14 0 -33 25 -57 34 -33 7 19 -103 176 -319 452 -5 8
-20 24 -32 37 -13 12 -23 27 -23 32 0 16 -45 53 -64 53 -17 0 -17 -1 1 -24z"/>
<path d="M7090 1789 c7 -13 17 -18 27 -15 10 4 13 2 10 -8 -7 -18 61 -98 76
-89 6 4 8 0 4 -10 -4 -10 2 -23 17 -34 12 -10 23 -22 25 -28 1 -5 80 -109 175
-230 189 -241 301 -394 311 -425 4 -11 11 -18 16 -15 5 4 9 -2 9 -12 0 -10 14
-39 30 -65 23 -37 36 -48 55 -48 28 0 29 3 14 31 -5 11 -15 16 -21 13 -7 -4
-8 -3 -4 4 4 7 2 12 -4 12 -6 0 -9 4 -6 8 3 5 -2 18 -12 29 -9 10 -22 28 -29
39 -6 10 -16 18 -22 17 -6 -2 -11 8 -11 22 0 18 -7 28 -26 35 -14 6 -22 15
-19 21 4 5 -32 76 -80 156 -61 101 -90 141 -96 132 -5 -8 -3 -16 4 -21 7 -4 4
-7 -9 -6 -12 1 -21 10 -21 20 -1 11 3 16 9 12 7 -4 8 -2 4 5 -4 6 -11 9 -15 7
-4 -3 -92 100 -196 229 -125 156 -194 235 -207 235 -16 0 -17 -3 -8 -21z"/>
<path d="M4163 1760 c0 -25 2 -35 4 -22 2 12 2 32 0 45 -2 12 -4 2 -4 -23z"/>
<path d="M1543 1723 c9 -2 25 -2 35 0 9 3 1 5 -18 5 -19 0 -27 -2 -17 -5z"/>
<path d="M1108 1693 c12 -2 32 -2 45 0 12 2 2 4 -23 4 -25 0 -35 -2 -22 -4z"/>
<path d="M1003 1615 c0 -27 2 -38 4 -22 2 15 2 37 0 50 -2 12 -4 0 -4 -28z"/>
<path d="M3938 1633 c6 -2 18 -2 25 0 6 3 1 5 -13 5 -14 0 -19 -2 -12 -5z"/>
<path d="M4081 1624 c0 -11 3 -14 6 -6 3 7 2 16 -1 19 -3 4 -6 -2 -5 -13z"/>
<path d="M4170 1620 c0 -5 25 -10 55 -10 30 0 55 5 55 10 0 6 -25 10 -55 10
-30 0 -55 -4 -55 -10z"/>
<path d="M1149 1473 c-1 -21 -1 -41 0 -45 0 -5 -5 -8 -11 -8 -7 0 -26 -24 -41
-53 -22 -40 -27 -59 -21 -81 6 -25 4 -28 -10 -23 -18 7 -21 -9 -6 -33 8 -13
10 -13 10 1 0 9 8 19 18 21 19 5 47 75 47 118 0 15 5 24 13 23 12 -3 16 9 13
35 -1 6 4 12 11 12 9 0 9 3 -2 10 -13 8 -12 10 4 10 13 0 16 5 12 17 -4 9 -1
20 6 25 9 5 4 8 -14 8 -25 0 -28 -4 -29 -37z m-34 -133 c3 -5 3 -15 -1 -21 -6
-11 -23 6 -24 24 0 10 18 9 25 -3z"/>
<path d="M1815 1410 c28 -12 45 -12 45 0 0 6 -15 10 -32 9 -28 0 -30 -2 -13
-9z"/>
<path d="M1870 1412 c0 -5 6 -9 13 -9 6 0 38 -4 70 -8 49 -6 57 -5 57 9 0 13
-12 16 -70 16 -38 0 -70 -4 -70 -8z"/>
<path d="M1876 1342 c6 -4 14 -14 17 -22 4 -10 6 -8 6 8 1 15 -5 22 -16 22
-11 0 -14 -3 -7 -8z"/>
<path d="M1915 1340 c-3 -5 -1 -10 4 -10 6 0 11 5 11 10 0 6 -2 10 -4 10 -3 0
-8 -4 -11 -10z"/>
<path d="M7636 1244 c-5 -14 71 -140 108 -177 9 -9 16 -18 16 -22 0 -3 26 -43
58 -88 31 -45 66 -95 77 -112 12 -17 30 -30 43 -31 l21 -1 -20 28 c-11 16 -25
26 -31 23 -7 -4 -8 -2 -4 4 8 13 -83 151 -99 152 -6 0 -15 15 -21 33 -5 17
-15 31 -22 30 -6 -2 -12 4 -12 13 0 13 -97 164 -105 164 -2 0 -6 -7 -9 -16z"/>
<path d="M1020 1180 c1 -24 1 -24 15 -6 8 11 15 14 15 8 0 -7 -9 -20 -19 -29
-11 -9 -18 -20 -15 -25 3 -4 0 -8 -6 -8 -7 0 -8 -6 -1 -19 6 -10 7 -21 4 -25
-3 -3 -1 -6 5 -6 7 0 12 15 12 36 0 19 4 33 8 30 7 -4 42 53 42 68 0 2 -13 3
-30 2 -25 -1 -30 -5 -30 -26z"/>
<path d="M2525 1191 c-3 -5 -1 -12 5 -16 5 -3 10 1 10 9 0 18 -6 21 -15 7z"/>
<path d="M2375 1181 c-3 -5 -2 -12 3 -15 5 -3 9 1 9 9 0 17 -3 19 -12 6z"/>
<path d="M2490 1180 c0 -5 5 -10 10 -10 6 0 10 5 10 10 0 6 -4 10 -10 10 -5 0
-10 -4 -10 -10z"/>
<path d="M2440 1170 c0 -5 9 -10 20 -10 11 0 20 5 20 10 0 6 -9 10 -20 10 -11
0 -20 -4 -20 -10z"/>
<path d="M970 1061 c0 -20 13 -41 21 -35 15 9 10 44 -6 44 -8 0 -15 -4 -15 -9z"/>
<path d="M5063 936 c-8 -10 -7 -16 8 -27 12 -9 17 -20 13 -33 -5 -15 -3 -18
10 -13 15 6 21 -7 17 -40 -1 -8 8 -13 21 -12 13 0 17 3 11 6 -7 2 -13 15 -13
28 0 13 -7 30 -15 38 -7 8 -17 26 -21 41 -7 29 -13 32 -31 12z"/>
<path d="M936 905 c-3 -8 -1 -17 3 -20 5 -3 11 2 15 10 3 8 1 17 -3 20 -5 3
-11 -2 -15 -10z"/>
<path d="M867 853 c-3 -16 -9 -36 -12 -46 -6 -13 -3 -16 9 -11 8 3 15 9 14 12
-3 26 4 52 12 47 6 -3 7 1 4 9 -9 24 -21 19 -27 -11z"/>
</g>
</svg>
